<svg width="346" height="108" viewBox="0 0 346 108" fill="none" xmlns="http://www.w3.org/2000/svg">
<path d="M340.168 73.4337C343.01 85.81 333.851 97.375 321.207 97.375L273.741 97.375C250.052 97.375 245.09 63.5283 267.964 57.9693L309.745 47.8155C314.464 46.6688 319.487 47.2975 323.867 49.5832L327.677 51.5714C333.049 54.3748 336.945 59.4013 338.292 65.2683L340.168 73.4337Z" fill="#527758"/>
<path d="M191.057 21.188C191.057 10.1461 182.109 1.19768 171.067 1.19758L71.5287 1.19662C52.4229 1.19644 44.1831 25.4236 59.3316 37.0595L82.7893 55.0778C84.5721 56.4473 86.5733 57.5061 88.7086 58.2099L164.79 83.2861C177.73 87.5511 191.059 77.908 191.058 64.2815L191.057 21.188Z" fill="#8281CE"/>
<path d="M0 44.6981C0 33.6525 8.95431 24.6981 20 24.6981H79.8487C99.9085 24.6981 107.48 50.9365 90.5039 61.6235L48.255 88.2207C47.2446 88.8568 46.1792 89.4012 45.0717 89.8472L27.4718 96.9356C14.3282 102.229 0 92.5533 0 78.3838V44.6981Z" fill="#C688D0"/>
<rect x="12.3997" y="39.6981" width="321.348" height="49" rx="10" fill="#E8E371"/>
<path d="M45.9288 55.2436V72.6981H42.2811V58.2436H35.2243V72.6981H31.5766V55.2436H45.9288ZM49.3742 77.6072V59.6072H52.9537V61.8061H53.1156C53.2747 61.4538 53.5048 61.0958 53.806 60.7322C54.1128 60.3629 54.5105 60.0561 54.9992 59.8118C55.4935 59.5618 56.1071 59.4368 56.8401 59.4368C57.7946 59.4368 58.6753 59.6868 59.4821 60.1868C60.2889 60.6811 60.9338 61.4282 61.4168 62.4282C61.8997 63.4226 62.1412 64.6697 62.1412 66.1697C62.1412 67.6299 61.9054 68.8629 61.4338 69.8686C60.9679 70.8686 60.3315 71.6271 59.5247 72.1441C58.7236 72.6555 57.8259 72.9112 56.8315 72.9112C56.127 72.9112 55.5276 72.7947 55.0332 72.5618C54.5446 72.3288 54.144 72.0362 53.8315 71.6839C53.519 71.326 53.2804 70.9652 53.1156 70.6015H53.0048V77.6072H49.3742ZM52.9281 66.1527C52.9281 66.9311 53.0361 67.6101 53.252 68.1896C53.4679 68.7691 53.7804 69.2208 54.1895 69.5447C54.5986 69.8629 55.0957 70.022 55.681 70.022C56.2719 70.022 56.7719 69.8601 57.181 69.5362C57.5901 69.2066 57.8997 68.7521 58.11 68.1726C58.3259 67.5873 58.4338 66.914 58.4338 66.1527C58.4338 65.397 58.3287 64.7322 58.1185 64.1583C57.9082 63.5845 57.5986 63.1356 57.1895 62.8118C56.7804 62.4879 56.2776 62.326 55.681 62.326C55.0901 62.326 54.5901 62.4822 54.181 62.7947C53.7776 63.1072 53.4679 63.5504 53.252 64.1243C53.0361 64.6981 52.9281 65.3743 52.9281 66.1527ZM68.2946 72.9453C67.4594 72.9453 66.7151 72.8004 66.0617 72.5106C65.4082 72.2152 64.8912 71.7805 64.5105 71.2066C64.1355 70.6271 63.948 69.9055 63.948 69.0419C63.948 68.3146 64.0815 67.7038 64.3486 67.2095C64.6156 66.7152 64.9793 66.3174 65.4395 66.0163C65.8997 65.7152 66.4225 65.4879 67.0077 65.3345C67.5986 65.1811 68.2179 65.0731 68.8656 65.0106C69.627 64.9311 70.2406 64.8572 70.7065 64.789C71.1725 64.7152 71.5105 64.6072 71.7207 64.4652C71.931 64.3231 72.0361 64.1129 72.0361 63.8345V63.7833C72.0361 63.2436 71.8656 62.826 71.5247 62.5305C71.1895 62.2351 70.7122 62.0873 70.0929 62.0873C69.4395 62.0873 68.9196 62.2322 68.5332 62.522C68.1469 62.8061 67.8912 63.164 67.7662 63.5958L64.4082 63.3231C64.5787 62.5277 64.9139 61.8402 65.4139 61.2606C65.9139 60.6754 66.5588 60.2265 67.3486 59.914C68.144 59.5958 69.0645 59.4368 70.11 59.4368C70.8372 59.4368 71.5332 59.522 72.198 59.6924C72.8685 59.8629 73.4622 60.1271 73.9793 60.4851C74.502 60.843 74.9139 61.3032 75.2151 61.8657C75.5162 62.4226 75.6668 63.0902 75.6668 63.8686V72.6981H72.2236V70.8828H72.1213C71.9111 71.2919 71.6298 71.6527 71.2776 71.9652C70.9253 72.272 70.502 72.5135 70.0077 72.6896C69.5134 72.8601 68.9423 72.9453 68.2946 72.9453ZM69.3344 70.4396C69.8685 70.4396 70.3401 70.3345 70.7492 70.1243C71.1582 69.9083 71.4793 69.6186 71.7122 69.2549C71.9452 68.8913 72.0617 68.4794 72.0617 68.0191V66.6299C71.948 66.7038 71.7918 66.772 71.5929 66.8345C71.3997 66.8913 71.181 66.9453 70.9367 66.9964C70.6923 67.0419 70.448 67.0845 70.2037 67.1243C69.9594 67.1583 69.7378 67.1896 69.5389 67.218C69.1128 67.2805 68.7406 67.3799 68.4225 67.5163C68.1043 67.6527 67.8571 67.8373 67.681 68.0703C67.5048 68.2976 67.4168 68.5816 67.4168 68.9226C67.4168 69.4169 67.5957 69.7947 67.9537 70.0561C68.3173 70.3118 68.7776 70.4396 69.3344 70.4396ZM78.4835 72.6981V59.6072H84.0659C85.6796 59.6072 86.9551 59.914 87.8926 60.5277C88.8301 61.1413 89.2989 62.0135 89.2989 63.1441C89.2989 63.8544 89.0347 64.4453 88.5063 64.9169C87.9779 65.3885 87.2449 65.7066 86.3074 65.8714C87.0915 65.9282 87.7591 66.1072 88.3102 66.4083C88.8671 66.7038 89.2904 67.0873 89.5801 67.5589C89.8756 68.0305 90.0233 68.5532 90.0233 69.1271C90.0233 69.8714 89.8244 70.5106 89.4267 71.0447C89.0347 71.5788 88.458 71.9879 87.6966 72.272C86.9409 72.5561 86.0176 72.6981 84.9267 72.6981H78.4835ZM81.8671 69.9794H84.9267C85.4324 69.9794 85.8273 69.8601 86.1114 69.6214C86.4011 69.3771 86.546 69.0447 86.546 68.6243C86.546 68.1583 86.4011 67.7919 86.1114 67.5248C85.8273 67.2578 85.4324 67.1243 84.9267 67.1243H81.8671V69.9794ZM81.8671 64.9936H84.1426C84.5063 64.9936 84.8159 64.9424 85.0716 64.8402C85.333 64.7322 85.5318 64.5788 85.6682 64.3799C85.8102 64.1811 85.8813 63.9453 85.8813 63.6726C85.8813 63.2691 85.7193 62.9538 85.3955 62.7265C85.0716 62.4993 84.6284 62.3856 84.0659 62.3856H81.8671V64.9936ZM96.0446 72.9453C95.2094 72.9453 94.4651 72.8004 93.8117 72.5106C93.1582 72.2152 92.6412 71.7805 92.2605 71.2066C91.8855 70.6271 91.698 69.9055 91.698 69.0419C91.698 68.3146 91.8315 67.7038 92.0986 67.2095C92.3656 66.7152 92.7293 66.3174 93.1895 66.0163C93.6497 65.7152 94.1725 65.4879 94.7577 65.3345C95.3486 65.1811 95.9679 65.0731 96.6156 65.0106C97.377 64.9311 97.9906 64.8572 98.4565 64.789C98.9225 64.7152 99.2605 64.6072 99.4707 64.4652C99.681 64.3231 99.7861 64.1129 99.7861 63.8345V63.7833C99.7861 63.2436 99.6156 62.826 99.2747 62.5305C98.9395 62.2351 98.4622 62.0873 97.8429 62.0873C97.1895 62.0873 96.6696 62.2322 96.2832 62.522C95.8969 62.8061 95.6412 63.164 95.5162 63.5958L92.1582 63.3231C92.3287 62.5277 92.6639 61.8402 93.1639 61.2606C93.6639 60.6754 94.3088 60.2265 95.0986 59.914C95.894 59.5958 96.8145 59.4368 97.86 59.4368C98.5872 59.4368 99.2832 59.522 99.948 59.6924C100.618 59.8629 101.212 60.1271 101.729 60.4851C102.252 60.843 102.664 61.3032 102.965 61.8657C103.266 62.4226 103.417 63.0902 103.417 63.8686V72.6981H99.9736V70.8828H99.8713C99.6611 71.2919 99.3798 71.6527 99.0276 71.9652C98.6753 72.272 98.252 72.5135 97.7577 72.6896C97.2634 72.8601 96.6923 72.9453 96.0446 72.9453ZM97.0844 70.4396C97.6185 70.4396 98.0901 70.3345 98.4992 70.1243C98.9082 69.9083 99.2293 69.6186 99.4622 69.2549C99.6952 68.8913 99.8117 68.4794 99.8117 68.0191V66.6299C99.698 66.7038 99.5418 66.772 99.3429 66.8345C99.1497 66.8913 98.931 66.9453 98.6867 66.9964C98.4423 67.0419 98.198 67.0845 97.9537 67.1243C97.7094 67.1583 97.4878 67.1896 97.2889 67.218C96.8628 67.2805 96.4906 67.3799 96.1725 67.5163C95.8543 67.6527 95.6071 67.8373 95.431 68.0703C95.2548 68.2976 95.1668 68.5816 95.1668 68.9226C95.1668 69.4169 95.3457 69.7947 95.7037 70.0561C96.0673 70.3118 96.5276 70.4396 97.0844 70.4396ZM111.106 62.4623V59.6072H122.97V62.4623H118.751V72.6981H115.291V62.4623H111.106ZM125.171 72.6981V59.6072H130.753C132.367 59.6072 133.643 59.914 134.58 60.5277C135.518 61.1413 135.986 62.0135 135.986 63.1441C135.986 63.8544 135.722 64.4453 135.194 64.9169C134.665 65.3885 133.932 65.7066 132.995 65.8714C133.779 65.9282 134.447 66.1072 134.998 66.4083C135.555 66.7038 135.978 67.0873 136.268 67.5589C136.563 68.0305 136.711 68.5532 136.711 69.1271C136.711 69.8714 136.512 70.5106 136.114 71.0447C135.722 71.5788 135.145 71.9879 134.384 72.272C133.628 72.5561 132.705 72.6981 131.614 72.6981H125.171ZM128.555 69.9794H131.614C132.12 69.9794 132.515 69.8601 132.799 69.6214C133.089 69.3771 133.234 69.0447 133.234 68.6243C133.234 68.1583 133.089 67.7919 132.799 67.5248C132.515 67.2578 132.12 67.1243 131.614 67.1243H128.555V69.9794ZM128.555 64.9936H130.83C131.194 64.9936 131.503 64.9424 131.759 64.8402C132.02 64.7322 132.219 64.5788 132.356 64.3799C132.498 64.1811 132.569 63.9453 132.569 63.6726C132.569 63.2691 132.407 62.9538 132.083 62.7265C131.759 62.4993 131.316 62.3856 130.753 62.3856H128.555V64.9936ZM142.732 72.9453C141.897 72.9453 141.153 72.8004 140.499 72.5106C139.846 72.2152 139.329 71.7805 138.948 71.2066C138.573 70.6271 138.386 69.9055 138.386 69.0419C138.386 68.3146 138.519 67.7038 138.786 67.2095C139.053 66.7152 139.417 66.3174 139.877 66.0163C140.337 65.7152 140.86 65.4879 141.445 65.3345C142.036 65.1811 142.655 65.0731 143.303 65.0106C144.064 64.9311 144.678 64.8572 145.144 64.789C145.61 64.7152 145.948 64.6072 146.158 64.4652C146.368 64.3231 146.474 64.1129 146.474 63.8345V63.7833C146.474 63.2436 146.303 62.826 145.962 62.5305C145.627 62.2351 145.15 62.0873 144.53 62.0873C143.877 62.0873 143.357 62.2322 142.971 62.522C142.584 62.8061 142.329 63.164 142.204 63.5958L138.846 63.3231C139.016 62.5277 139.351 61.8402 139.851 61.2606C140.351 60.6754 140.996 60.2265 141.786 59.914C142.582 59.5958 143.502 59.4368 144.547 59.4368C145.275 59.4368 145.971 59.522 146.636 59.6924C147.306 59.8629 147.9 60.1271 148.417 60.4851C148.939 60.843 149.351 61.3032 149.653 61.8657C149.954 62.4226 150.104 63.0902 150.104 63.8686V72.6981H146.661V70.8828H146.559C146.349 71.2919 146.067 71.6527 145.715 71.9652C145.363 72.272 144.939 72.5135 144.445 72.6896C143.951 72.8601 143.38 72.9453 142.732 72.9453ZM143.772 70.4396C144.306 70.4396 144.778 70.3345 145.187 70.1243C145.596 69.9083 145.917 69.6186 146.15 69.2549C146.383 68.8913 146.499 68.4794 146.499 68.0191V66.6299C146.386 66.7038 146.229 66.772 146.03 66.8345C145.837 66.8913 145.618 66.9453 145.374 66.9964C145.13 67.0419 144.886 67.0845 144.641 67.1243C144.397 67.1583 144.175 67.1896 143.976 67.218C143.55 67.2805 143.178 67.3799 142.86 67.5163C142.542 67.6527 142.295 67.8373 142.118 68.0703C141.942 68.2976 141.854 68.5816 141.854 68.9226C141.854 69.4169 142.033 69.7947 142.391 70.0561C142.755 70.3118 143.215 70.4396 143.772 70.4396ZM152.921 77.6072V59.6072H156.501V61.8061H156.663C156.822 61.4538 157.052 61.0958 157.353 60.7322C157.66 60.3629 158.057 60.0561 158.546 59.8118C159.04 59.5618 159.654 59.4368 160.387 59.4368C161.341 59.4368 162.222 59.6868 163.029 60.1868C163.836 60.6811 164.481 61.4282 164.964 62.4282C165.447 63.4226 165.688 64.6697 165.688 66.1697C165.688 67.6299 165.452 68.8629 164.981 69.8686C164.515 70.8686 163.878 71.6271 163.072 72.1441C162.27 72.6555 161.373 72.9112 160.378 72.9112C159.674 72.9112 159.074 72.7947 158.58 72.5618C158.091 72.3288 157.691 72.0362 157.378 71.6839C157.066 71.326 156.827 70.9652 156.663 70.6015H156.552V77.6072H152.921ZM156.475 66.1527C156.475 66.9311 156.583 67.6101 156.799 68.1896C157.015 68.7691 157.327 69.2208 157.736 69.5447C158.145 69.8629 158.643 70.022 159.228 70.022C159.819 70.022 160.319 69.8601 160.728 69.5362C161.137 69.2066 161.447 68.7521 161.657 68.1726C161.873 67.5873 161.981 66.914 161.981 66.1527C161.981 65.397 161.876 64.7322 161.665 64.1583C161.455 63.5845 161.145 63.1356 160.736 62.8118C160.327 62.4879 159.824 62.326 159.228 62.326C158.637 62.326 158.137 62.4822 157.728 62.7947C157.324 63.1072 157.015 63.5504 156.799 64.1243C156.583 64.6981 156.475 65.3743 156.475 66.1527ZM171.577 67.9083L176.29 59.6072H179.87V72.6981H176.41V64.3714L171.714 72.6981H168.109V59.6072H171.577V67.9083ZM191.891 64.7038V67.5589H185.056V64.7038H191.891ZM186.249 59.6072V72.6981H182.78V59.6072H186.249ZM194.167 59.6072V72.6981H190.724V59.6072H194.167ZM213.899 59.6072V72.6981H210.456V59.6072H213.899ZM212.22 65.3515V68.2152C211.942 68.3402 211.595 68.4595 211.18 68.5731C210.765 68.6811 210.331 68.7691 209.876 68.8373C209.422 68.9055 208.996 68.9396 208.598 68.9396C206.717 68.9396 205.237 68.5532 204.158 67.7805C203.078 67.0021 202.538 65.7606 202.538 64.0561V59.5902H205.964V64.0561C205.964 64.5618 206.05 64.9623 206.22 65.2578C206.396 65.5532 206.675 65.7663 207.055 65.897C207.442 66.022 207.956 66.0845 208.598 66.0845C209.194 66.0845 209.78 66.022 210.354 65.897C210.927 65.772 211.55 65.5902 212.22 65.3515ZM220.451 72.9453C219.616 72.9453 218.871 72.8004 218.218 72.5106C217.564 72.2152 217.047 71.7805 216.667 71.2066C216.292 70.6271 216.104 69.9055 216.104 69.0419C216.104 68.3146 216.238 67.7038 216.505 67.2095C216.772 66.7152 217.136 66.3174 217.596 66.0163C218.056 65.7152 218.579 65.4879 219.164 65.3345C219.755 65.1811 220.374 65.0731 221.022 65.0106C221.783 64.9311 222.397 64.8572 222.863 64.789C223.329 64.7152 223.667 64.6072 223.877 64.4652C224.087 64.3231 224.192 64.1129 224.192 63.8345V63.7833C224.192 63.2436 224.022 62.826 223.681 62.5305C223.346 62.2351 222.868 62.0873 222.249 62.0873C221.596 62.0873 221.076 62.2322 220.689 62.522C220.303 62.8061 220.047 63.164 219.922 63.5958L216.564 63.3231C216.735 62.5277 217.07 61.8402 217.57 61.2606C218.07 60.6754 218.715 60.2265 219.505 59.914C220.3 59.5958 221.221 59.4368 222.266 59.4368C222.993 59.4368 223.689 59.522 224.354 59.6924C225.025 59.8629 225.618 60.1271 226.136 60.4851C226.658 60.843 227.07 61.3032 227.371 61.8657C227.672 62.4226 227.823 63.0902 227.823 63.8686V72.6981H224.38V70.8828H224.278C224.067 71.2919 223.786 71.6527 223.434 71.9652C223.082 72.272 222.658 72.5135 222.164 72.6896C221.67 72.8601 221.099 72.9453 220.451 72.9453ZM221.491 70.4396C222.025 70.4396 222.496 70.3345 222.905 70.1243C223.314 69.9083 223.636 69.6186 223.868 69.2549C224.101 68.8913 224.218 68.4794 224.218 68.0191V66.6299C224.104 66.7038 223.948 66.772 223.749 66.8345C223.556 66.8913 223.337 66.9453 223.093 66.9964C222.849 67.0419 222.604 67.0845 222.36 67.1243C222.116 67.1583 221.894 67.1896 221.695 67.218C221.269 67.2805 220.897 67.3799 220.579 67.5163C220.261 67.6527 220.013 67.8373 219.837 68.0703C219.661 68.2976 219.573 68.5816 219.573 68.9226C219.573 69.4169 219.752 69.7947 220.11 70.0561C220.474 70.3118 220.934 70.4396 221.491 70.4396ZM236.555 72.9538C235.214 72.9538 234.06 72.6697 233.094 72.1015C232.134 71.5277 231.395 70.7322 230.878 69.7152C230.367 68.6981 230.111 67.5277 230.111 66.2038C230.111 64.8629 230.37 63.6868 230.887 62.6754C231.41 61.6583 232.151 60.8657 233.111 60.2976C234.072 59.7237 235.214 59.4368 236.538 59.4368C237.68 59.4368 238.68 59.6441 239.538 60.0589C240.395 60.4737 241.074 61.0561 241.574 61.8061C242.074 62.5561 242.35 63.4368 242.401 64.4481H238.975C238.878 63.7947 238.623 63.2691 238.208 62.8714C237.799 62.468 237.262 62.2663 236.597 62.2663C236.035 62.2663 235.543 62.4197 235.123 62.7265C234.708 63.0277 234.384 63.468 234.151 64.0476C233.918 64.6271 233.802 65.3288 233.802 66.1527C233.802 66.9879 233.915 67.6981 234.143 68.2833C234.376 68.8686 234.702 69.3146 235.123 69.6214C235.543 69.9282 236.035 70.0816 236.597 70.0816C237.012 70.0816 237.384 69.9964 237.714 69.826C238.049 69.6555 238.324 69.4083 238.54 69.0845C238.762 68.7549 238.907 68.3601 238.975 67.8998H242.401C242.344 68.8998 242.072 69.7805 241.583 70.5419C241.1 71.2976 240.432 71.8885 239.58 72.3146C238.728 72.7407 237.719 72.9538 236.555 72.9538ZM243.833 62.4623V59.6072H255.697V62.4623H251.478V72.6981H248.018V62.4623H243.833ZM261.366 67.9083L266.079 59.6072H269.659V72.6981H266.199V64.3714L261.503 72.6981H257.898V59.6072H261.366V67.9083ZM281.68 64.7038V67.5589H274.845V64.7038H281.68ZM276.038 59.6072V72.6981H272.569V59.6072H276.038ZM283.956 59.6072V72.6981H280.513V59.6072H283.956ZM290.506 72.9453C289.67 72.9453 288.926 72.8004 288.273 72.5106C287.619 72.2152 287.102 71.7805 286.721 71.2066C286.346 70.6271 286.159 69.9055 286.159 69.0419C286.159 68.3146 286.292 67.7038 286.56 67.2095C286.827 66.7152 287.19 66.3174 287.65 66.0163C288.111 65.7152 288.633 65.4879 289.219 65.3345C289.81 65.1811 290.429 65.0731 291.077 65.0106C291.838 64.9311 292.452 64.8572 292.917 64.789C293.383 64.7152 293.721 64.6072 293.932 64.4652C294.142 64.3231 294.247 64.1129 294.247 63.8345V63.7833C294.247 63.2436 294.077 62.826 293.736 62.5305C293.4 62.2351 292.923 62.0873 292.304 62.0873C291.65 62.0873 291.131 62.2322 290.744 62.522C290.358 62.8061 290.102 63.164 289.977 63.5958L286.619 63.3231C286.79 62.5277 287.125 61.8402 287.625 61.2606C288.125 60.6754 288.77 60.2265 289.56 59.914C290.355 59.5958 291.275 59.4368 292.321 59.4368C293.048 59.4368 293.744 59.522 294.409 59.6924C295.079 59.8629 295.673 60.1271 296.19 60.4851C296.713 60.843 297.125 61.3032 297.426 61.8657C297.727 62.4226 297.878 63.0902 297.878 63.8686V72.6981H294.435V70.8828H294.332C294.122 71.2919 293.841 71.6527 293.489 71.9652C293.136 72.272 292.713 72.5135 292.219 72.6896C291.724 72.8601 291.153 72.9453 290.506 72.9453ZM291.545 70.4396C292.079 70.4396 292.551 70.3345 292.96 70.1243C293.369 69.9083 293.69 69.6186 293.923 69.2549C294.156 68.8913 294.273 68.4794 294.273 68.0191V66.6299C294.159 66.7038 294.003 66.772 293.804 66.8345C293.611 66.8913 293.392 66.9453 293.148 66.9964C292.903 67.0419 292.659 67.0845 292.415 67.1243C292.17 67.1583 291.949 67.1896 291.75 67.218C291.324 67.2805 290.952 67.3799 290.633 67.5163C290.315 67.6527 290.068 67.8373 289.892 68.0703C289.716 68.2976 289.628 68.5816 289.628 68.9226C289.628 69.4169 289.807 69.7947 290.165 70.0561C290.528 70.3118 290.989 70.4396 291.545 70.4396ZM313.809 55.2436V72.6981H310.118V58.7464H310.016L306.019 61.2521V57.9794L310.34 55.2436H313.809Z" fill="#181717"/>
</svg>
