<svg width="572" height="171" viewBox="0 0 572 171" fill="none" xmlns="http://www.w3.org/2000/svg">
<path d="M525.726 66.0661C542.674 71.761 544.204 95.1345 528.144 102.99L459.517 136.558C441.989 145.132 423.814 126.098 433.189 108.984L458.518 62.7419C462.028 56.3342 468.753 52.3503 476.059 52.3501L481.637 52.35C483.803 52.3499 485.954 52.7018 488.008 53.3917L525.726 66.0661Z" fill="#527758"/>
<path d="M325.478 22.2529C325.555 11.2075 316.663 2.1913 305.617 2.11468L160.76 1.1098C137.22 0.946498 132.788 34.5058 155.564 40.4592L220.962 57.5541C222.609 57.9845 224.194 58.6233 225.679 59.4551L295.296 98.4527C308.574 105.891 324.964 96.3617 325.069 81.1426L325.478 22.2529Z" fill="#8281CE"/>
<path d="M113 52C113 40.9543 121.954 32 133 32H189.93C209.835 32 217.521 57.9114 200.835 68.7651L161.435 94.3947C159.318 95.7715 157.481 97.5368 156.021 99.5972L149.319 109.057C138.048 124.965 113 116.99 113 97.4946V52Z" fill="#C688D0"/>
<rect x="125" y="47" width="383" height="56" rx="10" fill="#E8E371"/>
<path d="M155.444 64.1818V86H150.884V67.9318H142.063V86H137.504V64.1818H155.444ZM159.751 92.1364V69.6364H164.225V72.3849H164.427C164.626 71.9446 164.914 71.4972 165.29 71.0426C165.674 70.581 166.171 70.1974 166.782 69.892C167.4 69.5795 168.167 69.4233 169.083 69.4233C170.276 69.4233 171.377 69.7358 172.385 70.3608C173.394 70.9787 174.2 71.9126 174.804 73.1626C175.407 74.4055 175.709 75.9645 175.709 77.8395C175.709 79.6648 175.415 81.206 174.825 82.4631C174.243 83.7131 173.447 84.6612 172.439 85.3075C171.437 85.9467 170.315 86.2663 169.072 86.2663C168.192 86.2663 167.442 86.1207 166.824 85.8295C166.214 85.5384 165.713 85.1726 165.322 84.7322C164.932 84.2848 164.633 83.8338 164.427 83.3793H164.289V92.1364H159.751ZM164.193 77.8182C164.193 78.7912 164.328 79.6399 164.598 80.3643C164.868 81.0888 165.258 81.6534 165.77 82.0582C166.281 82.456 166.903 82.6548 167.634 82.6548C168.373 82.6548 168.998 82.4524 169.509 82.0476C170.02 81.6357 170.407 81.0675 170.67 80.343C170.94 79.6115 171.075 78.7699 171.075 77.8182C171.075 76.8736 170.944 76.0426 170.681 75.3253C170.418 74.608 170.031 74.0469 169.52 73.642C169.008 73.2372 168.38 73.0348 167.634 73.0348C166.895 73.0348 166.27 73.2301 165.759 73.6207C165.255 74.0114 164.868 74.5653 164.598 75.2827C164.328 76 164.193 76.8452 164.193 77.8182ZM183.401 86.3089C182.357 86.3089 181.427 86.1278 180.61 85.7656C179.793 85.3963 179.147 84.853 178.671 84.1357C178.202 83.4112 177.968 82.5092 177.968 81.4297C177.968 80.5206 178.135 79.7571 178.469 79.1392C178.802 78.5213 179.257 78.0241 179.832 77.6477C180.407 77.2713 181.061 76.9872 181.792 76.7955C182.531 76.6037 183.305 76.4688 184.115 76.3906C185.067 76.2912 185.834 76.1989 186.416 76.1136C186.998 76.0213 187.421 75.8864 187.684 75.7088C187.947 75.5312 188.078 75.2685 188.078 74.9205V74.8565C188.078 74.1818 187.865 73.6598 187.439 73.2905C187.02 72.9212 186.423 72.7365 185.649 72.7365C184.832 72.7365 184.182 72.9176 183.699 73.2798C183.216 73.6349 182.897 74.0824 182.741 74.6222L178.543 74.2812C178.756 73.2869 179.175 72.4276 179.8 71.7031C180.425 70.9716 181.231 70.4105 182.219 70.0199C183.213 69.6222 184.363 69.4233 185.67 69.4233C186.579 69.4233 187.449 69.5298 188.28 69.7429C189.118 69.956 189.861 70.2862 190.507 70.7337C191.16 71.1811 191.675 71.7564 192.052 72.4595C192.428 73.1555 192.616 73.9901 192.616 74.9631V86H188.312V83.7308H188.184C187.922 84.2422 187.57 84.6932 187.13 85.0838C186.689 85.4673 186.16 85.7692 185.542 85.9893C184.925 86.2024 184.211 86.3089 183.401 86.3089ZM184.701 83.1768C185.368 83.1768 185.958 83.0455 186.469 82.7827C186.981 82.5128 187.382 82.1506 187.673 81.696C187.964 81.2415 188.11 80.7266 188.11 80.1513V78.4148C187.968 78.5071 187.773 78.5923 187.524 78.6705C187.282 78.7415 187.009 78.8089 186.704 78.8729C186.398 78.9297 186.093 78.983 185.787 79.0327C185.482 79.0753 185.205 79.1143 184.956 79.1499C184.424 79.228 183.959 79.3523 183.561 79.5227C183.163 79.6932 182.854 79.924 182.634 80.2152C182.414 80.4993 182.304 80.8544 182.304 81.2805C182.304 81.8984 182.528 82.3707 182.975 82.6974C183.43 83.017 184.005 83.1768 184.701 83.1768ZM196.137 86V69.6364H203.115C205.132 69.6364 206.727 70.0199 207.899 70.7869C209.07 71.554 209.656 72.6442 209.656 74.0575C209.656 74.9453 209.326 75.6839 208.666 76.2734C208.005 76.8629 207.089 77.2607 205.917 77.4666C206.897 77.5376 207.732 77.7614 208.421 78.1378C209.117 78.5071 209.646 78.9865 210.008 79.576C210.377 80.1655 210.562 80.8189 210.562 81.5362C210.562 82.4666 210.313 83.2656 209.816 83.9332C209.326 84.6009 208.605 85.1122 207.654 85.4673C206.709 85.8224 205.555 86 204.191 86H196.137ZM200.367 82.6016H204.191C204.823 82.6016 205.317 82.4524 205.672 82.1541C206.034 81.8487 206.215 81.4332 206.215 80.9077C206.215 80.3253 206.034 79.8672 205.672 79.5334C205.317 79.1996 204.823 79.0327 204.191 79.0327H200.367V82.6016ZM200.367 76.3693H203.211C203.666 76.3693 204.053 76.3054 204.372 76.1776C204.699 76.0426 204.948 75.8509 205.118 75.6023C205.296 75.3537 205.384 75.0589 205.384 74.718C205.384 74.2138 205.182 73.8196 204.777 73.5355C204.372 73.2514 203.818 73.1094 203.115 73.1094H200.367V76.3693ZM218.089 86.3089C217.045 86.3089 216.114 86.1278 215.297 85.7656C214.481 85.3963 213.834 84.853 213.358 84.1357C212.89 83.4112 212.655 82.5092 212.655 81.4297C212.655 80.5206 212.822 79.7571 213.156 79.1392C213.49 78.5213 213.944 78.0241 214.52 77.6477C215.095 77.2713 215.748 76.9872 216.48 76.7955C217.219 76.6037 217.993 76.4688 218.802 76.3906C219.754 76.2912 220.521 76.1989 221.104 76.1136C221.686 76.0213 222.108 75.8864 222.371 75.7088C222.634 75.5312 222.765 75.2685 222.765 74.9205V74.8565C222.765 74.1818 222.552 73.6598 222.126 73.2905C221.707 72.9212 221.111 72.7365 220.336 72.7365C219.52 72.7365 218.87 72.9176 218.387 73.2798C217.904 73.6349 217.584 74.0824 217.428 74.6222L213.231 74.2812C213.444 73.2869 213.863 72.4276 214.488 71.7031C215.113 70.9716 215.919 70.4105 216.906 70.0199C217.9 69.6222 219.051 69.4233 220.358 69.4233C221.267 69.4233 222.137 69.5298 222.968 69.7429C223.806 69.956 224.548 70.2862 225.194 70.7337C225.848 71.1811 226.363 71.7564 226.739 72.4595C227.116 73.1555 227.304 73.9901 227.304 74.9631V86H223V83.7308H222.872C222.609 84.2422 222.258 84.6932 221.817 85.0838C221.377 85.4673 220.848 85.7692 220.23 85.9893C219.612 86.2024 218.898 86.3089 218.089 86.3089ZM219.388 83.1768C220.056 83.1768 220.645 83.0455 221.157 82.7827C221.668 82.5128 222.069 82.1506 222.361 81.696C222.652 81.2415 222.797 80.7266 222.797 80.1513V78.4148C222.655 78.5071 222.46 78.5923 222.211 78.6705C221.97 78.7415 221.697 78.8089 221.391 78.8729C221.086 78.9297 220.78 78.983 220.475 79.0327C220.17 79.0753 219.893 79.1143 219.644 79.1499C219.111 79.228 218.646 79.3523 218.248 79.5227C217.851 79.6932 217.542 79.924 217.322 80.2152C217.101 80.4993 216.991 80.8544 216.991 81.2805C216.991 81.8984 217.215 82.3707 217.662 82.6974C218.117 83.017 218.692 83.1768 219.388 83.1768ZM236.916 73.2053V69.6364H251.745V73.2053H246.472V86H242.147V73.2053H236.916ZM254.497 86V69.6364H261.475C263.492 69.6364 265.086 70.0199 266.258 70.7869C267.43 71.554 268.016 72.6442 268.016 74.0575C268.016 74.9453 267.686 75.6839 267.025 76.2734C266.365 76.8629 265.448 77.2607 264.276 77.4666C265.257 77.5376 266.091 77.7614 266.78 78.1378C267.476 78.5071 268.005 78.9865 268.367 79.576C268.737 80.1655 268.921 80.8189 268.921 81.5362C268.921 82.4666 268.673 83.2656 268.176 83.9332C267.686 84.6009 266.965 85.1122 266.013 85.4673C265.068 85.8224 263.914 86 262.551 86H254.497ZM258.726 82.6016H262.551C263.183 82.6016 263.676 82.4524 264.031 82.1541C264.394 81.8487 264.575 81.4332 264.575 80.9077C264.575 80.3253 264.394 79.8672 264.031 79.5334C263.676 79.1996 263.183 79.0327 262.551 79.0327H258.726V82.6016ZM258.726 76.3693H261.57C262.025 76.3693 262.412 76.3054 262.732 76.1776C263.058 76.0426 263.307 75.8509 263.477 75.6023C263.655 75.3537 263.744 75.0589 263.744 74.718C263.744 74.2138 263.541 73.8196 263.137 73.5355C262.732 73.2514 262.178 73.1094 261.475 73.1094H258.726V76.3693ZM276.448 86.3089C275.404 86.3089 274.474 86.1278 273.657 85.7656C272.84 85.3963 272.194 84.853 271.718 84.1357C271.249 83.4112 271.015 82.5092 271.015 81.4297C271.015 80.5206 271.182 79.7571 271.515 79.1392C271.849 78.5213 272.304 78.0241 272.879 77.6477C273.454 77.2713 274.108 76.9872 274.839 76.7955C275.578 76.6037 276.352 76.4688 277.162 76.3906C278.113 76.2912 278.881 76.1989 279.463 76.1136C280.045 76.0213 280.468 75.8864 280.731 75.7088C280.993 75.5312 281.125 75.2685 281.125 74.9205V74.8565C281.125 74.1818 280.912 73.6598 280.486 73.2905C280.067 72.9212 279.47 72.7365 278.696 72.7365C277.879 72.7365 277.229 72.9176 276.746 73.2798C276.263 73.6349 275.944 74.0824 275.787 74.6222L271.59 74.2812C271.803 73.2869 272.222 72.4276 272.847 71.7031C273.472 70.9716 274.278 70.4105 275.265 70.0199C276.26 69.6222 277.41 69.4233 278.717 69.4233C279.626 69.4233 280.496 69.5298 281.327 69.7429C282.165 69.956 282.907 70.2862 283.554 70.7337C284.207 71.1811 284.722 71.7564 285.099 72.4595C285.475 73.1555 285.663 73.9901 285.663 74.9631V86H281.359V83.7308H281.231C280.969 84.2422 280.617 84.6932 280.177 85.0838C279.736 85.4673 279.207 85.7692 278.589 85.9893C277.971 86.2024 277.258 86.3089 276.448 86.3089ZM277.748 83.1768C278.415 83.1768 279.005 83.0455 279.516 82.7827C280.028 82.5128 280.429 82.1506 280.72 81.696C281.011 81.2415 281.157 80.7266 281.157 80.1513V78.4148C281.015 78.5071 280.819 78.5923 280.571 78.6705C280.329 78.7415 280.056 78.8089 279.751 78.8729C279.445 78.9297 279.14 78.983 278.834 79.0327C278.529 79.0753 278.252 79.1143 278.003 79.1499C277.471 79.228 277.006 79.3523 276.608 79.5227C276.21 79.6932 275.901 79.924 275.681 80.2152C275.461 80.4993 275.351 80.8544 275.351 81.2805C275.351 81.8984 275.574 82.3707 276.022 82.6974C276.476 83.017 277.052 83.1768 277.748 83.1768ZM289.184 92.1364V69.6364H293.659V72.3849H293.861C294.06 71.9446 294.347 71.4972 294.724 71.0426C295.107 70.581 295.605 70.1974 296.215 69.892C296.833 69.5795 297.6 69.4233 298.517 69.4233C299.71 69.4233 300.811 69.7358 301.819 70.3608C302.828 70.9787 303.634 71.9126 304.237 73.1626C304.841 74.4055 305.143 75.9645 305.143 77.8395C305.143 79.6648 304.848 81.206 304.259 82.4631C303.676 83.7131 302.881 84.6612 301.872 85.3075C300.871 85.9467 299.749 86.2663 298.506 86.2663C297.625 86.2663 296.876 86.1207 296.258 85.8295C295.647 85.5384 295.146 85.1726 294.756 84.7322C294.365 84.2848 294.067 83.8338 293.861 83.3793H293.722V92.1364H289.184ZM293.627 77.8182C293.627 78.7912 293.762 79.6399 294.031 80.3643C294.301 81.0888 294.692 81.6534 295.203 82.0582C295.715 82.456 296.336 82.6548 297.068 82.6548C297.806 82.6548 298.431 82.4524 298.943 82.0476C299.454 81.6357 299.841 81.0675 300.104 80.343C300.374 79.6115 300.509 78.7699 300.509 77.8182C300.509 76.8736 300.377 76.0426 300.115 75.3253C299.852 74.608 299.465 74.0469 298.953 73.642C298.442 73.2372 297.813 73.0348 297.068 73.0348C296.329 73.0348 295.704 73.2301 295.193 73.6207C294.688 74.0114 294.301 74.5653 294.031 75.2827C293.762 76 293.627 76.8452 293.627 77.8182ZM312.504 80.0128L318.396 69.6364H322.87V86H318.545V75.5916L312.675 86H308.169V69.6364H312.504V80.0128ZM337.897 76.0071V79.576H329.353V76.0071H337.897ZM330.844 69.6364V86H326.508V69.6364H330.844ZM340.741 69.6364V86H336.437V69.6364H340.741ZM365.407 69.6364V86H361.103V69.6364H365.407ZM363.308 76.8168V80.3963C362.96 80.5526 362.527 80.7017 362.008 80.8438C361.49 80.9787 360.946 81.0888 360.378 81.174C359.81 81.2592 359.277 81.3018 358.78 81.3018C356.429 81.3018 354.579 80.8189 353.23 79.853C351.88 78.88 351.206 77.3281 351.206 75.1974V69.6151H355.488V75.1974C355.488 75.8295 355.595 76.3303 355.808 76.6996C356.028 77.0689 356.376 77.3352 356.852 77.4986C357.335 77.6548 357.978 77.733 358.78 77.733C359.526 77.733 360.257 77.6548 360.975 77.4986C361.692 77.3423 362.47 77.1151 363.308 76.8168ZM373.596 86.3089C372.552 86.3089 371.622 86.1278 370.805 85.7656C369.988 85.3963 369.342 84.853 368.866 84.1357C368.398 83.4112 368.163 82.5092 368.163 81.4297C368.163 80.5206 368.33 79.7571 368.664 79.1392C368.998 78.5213 369.452 78.0241 370.028 77.6477C370.603 77.2713 371.256 76.9872 371.988 76.7955C372.726 76.6037 373.501 76.4688 374.31 76.3906C375.262 76.2912 376.029 76.1989 376.611 76.1136C377.194 76.0213 377.616 75.8864 377.879 75.7088C378.142 75.5312 378.273 75.2685 378.273 74.9205V74.8565C378.273 74.1818 378.06 73.6598 377.634 73.2905C377.215 72.9212 376.618 72.7365 375.844 72.7365C375.028 72.7365 374.378 72.9176 373.895 73.2798C373.412 73.6349 373.092 74.0824 372.936 74.6222L368.738 74.2812C368.952 73.2869 369.371 72.4276 369.996 71.7031C370.621 70.9716 371.427 70.4105 372.414 70.0199C373.408 69.6222 374.559 69.4233 375.866 69.4233C376.775 69.4233 377.645 69.5298 378.476 69.7429C379.314 69.956 380.056 70.2862 380.702 70.7337C381.356 71.1811 381.871 71.7564 382.247 72.4595C382.623 73.1555 382.812 73.9901 382.812 74.9631V86H378.508V83.7308H378.38C378.117 84.2422 377.765 84.6932 377.325 85.0838C376.885 85.4673 376.356 85.7692 375.738 85.9893C375.12 86.2024 374.406 86.3089 373.596 86.3089ZM374.896 83.1768C375.564 83.1768 376.153 83.0455 376.665 82.7827C377.176 82.5128 377.577 82.1506 377.868 81.696C378.16 81.2415 378.305 80.7266 378.305 80.1513V78.4148C378.163 78.5071 377.968 78.5923 377.719 78.6705C377.478 78.7415 377.204 78.8089 376.899 78.8729C376.594 78.9297 376.288 78.983 375.983 79.0327C375.677 79.0753 375.4 79.1143 375.152 79.1499C374.619 79.228 374.154 79.3523 373.756 79.5227C373.358 79.6932 373.05 79.924 372.829 80.2152C372.609 80.4993 372.499 80.8544 372.499 81.2805C372.499 81.8984 372.723 82.3707 373.17 82.6974C373.625 83.017 374.2 83.1768 374.896 83.1768ZM393.726 86.3196C392.05 86.3196 390.608 85.9645 389.401 85.2543C388.2 84.5369 387.277 83.5426 386.631 82.2713C385.992 81 385.672 79.5369 385.672 77.8821C385.672 76.206 385.995 74.7358 386.642 73.4716C387.295 72.2003 388.222 71.2095 389.422 70.4993C390.622 69.782 392.05 69.4233 393.705 69.4233C395.132 69.4233 396.382 69.6825 397.455 70.201C398.527 70.7195 399.376 71.4474 400.001 72.3849C400.626 73.3224 400.97 74.4233 401.034 75.6875H396.752C396.631 74.8707 396.311 74.2138 395.793 73.7166C395.281 73.2124 394.61 72.9602 393.779 72.9602C393.076 72.9602 392.462 73.152 391.936 73.5355C391.418 73.9119 391.013 74.4624 390.722 75.1868C390.431 75.9112 390.285 76.7884 390.285 77.8182C390.285 78.8622 390.427 79.75 390.711 80.4815C391.002 81.2131 391.411 81.7706 391.936 82.1541C392.462 82.5376 393.076 82.7294 393.779 82.7294C394.298 82.7294 394.763 82.6229 395.175 82.4098C395.594 82.1967 395.938 81.8878 396.208 81.483C396.485 81.071 396.666 80.5774 396.752 80.0021H401.034C400.963 81.2521 400.622 82.353 400.012 83.3047C399.408 84.2493 398.573 84.9879 397.508 85.5206C396.443 86.0533 395.182 86.3196 393.726 86.3196ZM402.824 73.2053V69.6364H417.654V73.2053H412.38V86H408.055V73.2053H402.824ZM424.741 80.0128L430.632 69.6364H435.107V86H430.781V75.5916L424.911 86H420.405V69.6364H424.741V80.0128ZM450.133 76.0071V79.576H441.589V76.0071H450.133ZM443.081 69.6364V86H438.745V69.6364H443.081ZM452.978 69.6364V86H448.674V69.6364H452.978ZM461.165 86.3089C460.121 86.3089 459.19 86.1278 458.374 85.7656C457.557 85.3963 456.911 84.853 456.435 84.1357C455.966 83.4112 455.732 82.5092 455.732 81.4297C455.732 80.5206 455.898 79.7571 456.232 79.1392C456.566 78.5213 457.021 78.0241 457.596 77.6477C458.171 77.2713 458.825 76.9872 459.556 76.7955C460.295 76.6037 461.069 76.4688 461.879 76.3906C462.83 76.2912 463.597 76.1989 464.18 76.1136C464.762 76.0213 465.185 75.8864 465.447 75.7088C465.71 75.5312 465.842 75.2685 465.842 74.9205V74.8565C465.842 74.1818 465.629 73.6598 465.202 73.2905C464.783 72.9212 464.187 72.7365 463.413 72.7365C462.596 72.7365 461.946 72.9176 461.463 73.2798C460.98 73.6349 460.661 74.0824 460.504 74.6222L456.307 74.2812C456.52 73.2869 456.939 72.4276 457.564 71.7031C458.189 70.9716 458.995 70.4105 459.982 70.0199C460.977 69.6222 462.127 69.4233 463.434 69.4233C464.343 69.4233 465.213 69.5298 466.044 69.7429C466.882 69.956 467.624 70.2862 468.271 70.7337C468.924 71.1811 469.439 71.7564 469.815 72.4595C470.192 73.1555 470.38 73.9901 470.38 74.9631V86H466.076V83.7308H465.948C465.685 84.2422 465.334 84.6932 464.893 85.0838C464.453 85.4673 463.924 85.7692 463.306 85.9893C462.688 86.2024 461.974 86.3089 461.165 86.3089ZM462.464 83.1768C463.132 83.1768 463.722 83.0455 464.233 82.7827C464.744 82.5128 465.146 82.1506 465.437 81.696C465.728 81.2415 465.874 80.7266 465.874 80.1513V78.4148C465.732 78.5071 465.536 78.5923 465.288 78.6705C465.046 78.7415 464.773 78.8089 464.467 78.8729C464.162 78.9297 463.857 78.983 463.551 79.0327C463.246 79.0753 462.969 79.1143 462.72 79.1499C462.188 79.228 461.722 79.3523 461.325 79.5227C460.927 79.6932 460.618 79.924 460.398 80.2152C460.178 80.4993 460.067 80.8544 460.067 81.2805C460.067 81.8984 460.291 82.3707 460.739 82.6974C461.193 83.017 461.768 83.1768 462.464 83.1768ZM480.802 86V82.6761L488.568 75.4851C489.229 74.8459 489.782 74.2706 490.23 73.7592C490.684 73.2479 491.029 72.7472 491.263 72.2571C491.498 71.7599 491.615 71.2237 491.615 70.6484C491.615 70.0092 491.469 69.4588 491.178 68.9972C490.887 68.5284 490.489 68.1697 489.985 67.9212C489.481 67.6655 488.909 67.5376 488.27 67.5376C487.602 67.5376 487.02 67.6726 486.523 67.9425C486.025 68.2124 485.642 68.5994 485.372 69.1037C485.102 69.608 484.967 70.2081 484.967 70.9041H480.589C480.589 69.4766 480.912 68.2372 481.558 67.1861C482.204 66.1349 483.11 65.3217 484.275 64.7464C485.439 64.1712 486.782 63.8835 488.302 63.8835C489.864 63.8835 491.224 64.1605 492.382 64.7145C493.547 65.2614 494.452 66.0213 495.099 66.9943C495.745 67.9673 496.068 69.0824 496.068 70.3395C496.068 71.1634 495.905 71.9766 495.578 72.7791C495.258 73.5817 494.687 74.473 493.863 75.4531C493.039 76.4261 491.878 77.5945 490.379 78.9581L487.194 82.0795V82.2287H496.356V86H480.802Z" fill="#181717"/>
</svg>
