<svg width="346" height="108" viewBox="0 0 346 108" fill="none" xmlns="http://www.w3.org/2000/svg">
<path d="M340.168 73.4337C343.01 85.81 333.851 97.375 321.207 97.375L273.741 97.375C250.052 97.375 245.09 63.5283 267.964 57.9693L309.745 47.8155C314.464 46.6688 319.487 47.2975 323.867 49.5832L327.677 51.5714C333.049 54.3748 336.945 59.4013 338.292 65.2683L340.168 73.4337Z" fill="#527758"/>
<path d="M191.057 21.188C191.057 10.1461 182.109 1.19768 171.067 1.19758L71.5287 1.19662C52.4229 1.19644 44.1831 25.4236 59.3316 37.0595L82.7893 55.0778C84.5721 56.4473 86.5733 57.5061 88.7086 58.2099L164.79 83.2861C177.73 87.5511 191.059 77.908 191.058 64.2815L191.057 21.188Z" fill="#8281CE"/>
<path d="M0 44.698C0 33.6523 8.95431 24.698 20 24.698H79.8487C99.9085 24.698 107.48 50.9364 90.5039 61.6234L48.255 88.2206C47.2446 88.8567 46.1792 89.4011 45.0717 89.8471L27.4718 96.9355C14.3282 102.229 0 92.5532 0 78.3837V44.698Z" fill="#C688D0"/>
<rect x="12.3997" y="39.6982" width="321.348" height="49" rx="10" fill="#E8E371"/>
<path d="M43.9288 55.2437V72.6982H40.2811V58.2437H33.2243V72.6982H29.5766V55.2437H43.9288ZM47.3742 77.6073V59.6073H50.9537V61.8062H51.1156C51.2747 61.4539 51.5048 61.096 51.806 60.7323C52.1128 60.363 52.5105 60.0562 52.9992 59.8119C53.4935 59.5619 54.1071 59.4369 54.8401 59.4369C55.7946 59.4369 56.6753 59.6869 57.4821 60.1869C58.2889 60.6812 58.9338 61.4284 59.4168 62.4284C59.8997 63.4227 60.1412 64.6698 60.1412 66.1698C60.1412 67.6301 59.9054 68.863 59.4338 69.8687C58.9679 70.8687 58.3315 71.6272 57.5247 72.1443C56.7236 72.6556 55.8259 72.9113 54.8315 72.9113C54.127 72.9113 53.5276 72.7948 53.0332 72.5619C52.5446 72.3289 52.144 72.0363 51.8315 71.684C51.519 71.3261 51.2804 70.9653 51.1156 70.6017H51.0048V77.6073H47.3742ZM50.9281 66.1528C50.9281 66.9312 51.0361 67.6102 51.252 68.1897C51.4679 68.7693 51.7804 69.221 52.1895 69.5448C52.5986 69.863 53.0957 70.0221 53.681 70.0221C54.2719 70.0221 54.7719 69.8602 55.181 69.5363C55.5901 69.2068 55.8997 68.7522 56.11 68.1727C56.3259 67.5874 56.4338 66.9142 56.4338 66.1528C56.4338 65.3971 56.3287 64.7323 56.1185 64.1585C55.9082 63.5846 55.5986 63.1357 55.1895 62.8119C54.7804 62.488 54.2776 62.3261 53.681 62.3261C53.0901 62.3261 52.5901 62.4823 52.181 62.7948C51.7776 63.1073 51.4679 63.5505 51.252 64.1244C51.0361 64.6982 50.9281 65.3744 50.9281 66.1528ZM66.2946 72.9454C65.4594 72.9454 64.7151 72.8005 64.0617 72.5107C63.4082 72.2153 62.8912 71.7806 62.5105 71.2068C62.1355 70.6272 61.948 69.9056 61.948 69.042C61.948 68.3147 62.0815 67.7039 62.3486 67.2096C62.6156 66.7153 62.9793 66.3176 63.4395 66.0164C63.8997 65.7153 64.4225 65.488 65.0077 65.3346C65.5986 65.1812 66.2179 65.0732 66.8656 65.0107C67.627 64.9312 68.2406 64.8573 68.7065 64.7892C69.1725 64.7153 69.5105 64.6073 69.7207 64.4653C69.931 64.3232 70.0361 64.113 70.0361 63.8346V63.7835C70.0361 63.2437 69.8656 62.8261 69.5247 62.5306C69.1895 62.2352 68.7122 62.0874 68.0929 62.0874C67.4395 62.0874 66.9196 62.2323 66.5332 62.5221C66.1469 62.8062 65.8912 63.1642 65.7662 63.596L62.4082 63.3232C62.5787 62.5278 62.9139 61.8403 63.4139 61.2607C63.9139 60.6755 64.5588 60.2267 65.3486 59.9142C66.144 59.596 67.0645 59.4369 68.11 59.4369C68.8372 59.4369 69.5332 59.5221 70.198 59.6926C70.8685 59.863 71.4622 60.1272 71.9793 60.4852C72.502 60.8431 72.9139 61.3034 73.2151 61.8659C73.5162 62.4227 73.6668 63.0903 73.6668 63.8687V72.6982H70.2236V70.8829H70.1213C69.9111 71.292 69.6298 71.6528 69.2776 71.9653C68.9253 72.2721 68.502 72.5136 68.0077 72.6897C67.5134 72.8602 66.9423 72.9454 66.2946 72.9454ZM67.3344 70.4397C67.8685 70.4397 68.3401 70.3346 68.7492 70.1244C69.1582 69.9085 69.4793 69.6187 69.7122 69.2551C69.9452 68.8914 70.0617 68.4795 70.0617 68.0193V66.6301C69.948 66.7039 69.7918 66.7721 69.5929 66.8346C69.3997 66.8914 69.181 66.9454 68.9367 66.9965C68.6923 67.042 68.448 67.0846 68.2037 67.1244C67.9594 67.1585 67.7378 67.1897 67.5389 67.2181C67.1128 67.2806 66.7406 67.3801 66.4225 67.5164C66.1043 67.6528 65.8571 67.8374 65.681 68.0704C65.5048 68.2977 65.4168 68.5818 65.4168 68.9227C65.4168 69.417 65.5957 69.7948 65.9537 70.0562C66.3173 70.3119 66.7776 70.4397 67.3344 70.4397ZM76.4835 72.6982V59.6073H82.0659C83.6796 59.6073 84.9551 59.9142 85.8926 60.5278C86.8301 61.1414 87.2989 62.0136 87.2989 63.1443C87.2989 63.8545 87.0347 64.4454 86.5063 64.917C85.9779 65.3886 85.2449 65.7068 84.3074 65.8715C85.0915 65.9284 85.7591 66.1073 86.3102 66.4085C86.8671 66.7039 87.2904 67.0874 87.5801 67.559C87.8756 68.0306 88.0233 68.5534 88.0233 69.1272C88.0233 69.8715 87.8244 70.5107 87.4267 71.0448C87.0347 71.5789 86.458 71.988 85.6966 72.2721C84.9409 72.5562 84.0176 72.6982 82.9267 72.6982H76.4835ZM79.8671 69.9795H82.9267C83.4324 69.9795 83.8273 69.8602 84.1114 69.6215C84.4011 69.3772 84.546 69.0448 84.546 68.6244C84.546 68.1585 84.4011 67.792 84.1114 67.5249C83.8273 67.2579 83.4324 67.1244 82.9267 67.1244H79.8671V69.9795ZM79.8671 64.9937H82.1426C82.5063 64.9937 82.8159 64.9426 83.0716 64.8403C83.333 64.7323 83.5318 64.5789 83.6682 64.3801C83.8102 64.1812 83.8813 63.9454 83.8813 63.6727C83.8813 63.2693 83.7193 62.9539 83.3955 62.7267C83.0716 62.4994 82.6284 62.3857 82.0659 62.3857H79.8671V64.9937ZM94.0446 72.9454C93.2094 72.9454 92.4651 72.8005 91.8117 72.5107C91.1582 72.2153 90.6412 71.7806 90.2605 71.2068C89.8855 70.6272 89.698 69.9056 89.698 69.042C89.698 68.3147 89.8315 67.7039 90.0986 67.2096C90.3656 66.7153 90.7293 66.3176 91.1895 66.0164C91.6497 65.7153 92.1725 65.488 92.7577 65.3346C93.3486 65.1812 93.9679 65.0732 94.6156 65.0107C95.377 64.9312 95.9906 64.8573 96.4565 64.7892C96.9225 64.7153 97.2605 64.6073 97.4707 64.4653C97.681 64.3232 97.7861 64.113 97.7861 63.8346V63.7835C97.7861 63.2437 97.6156 62.8261 97.2747 62.5306C96.9395 62.2352 96.4622 62.0874 95.8429 62.0874C95.1895 62.0874 94.6696 62.2323 94.2832 62.5221C93.8969 62.8062 93.6412 63.1642 93.5162 63.596L90.1582 63.3232C90.3287 62.5278 90.6639 61.8403 91.1639 61.2607C91.6639 60.6755 92.3088 60.2267 93.0986 59.9142C93.894 59.596 94.8145 59.4369 95.86 59.4369C96.5872 59.4369 97.2832 59.5221 97.948 59.6926C98.6185 59.863 99.2122 60.1272 99.7293 60.4852C100.252 60.8431 100.664 61.3034 100.965 61.8659C101.266 62.4227 101.417 63.0903 101.417 63.8687V72.6982H97.9736V70.8829H97.8713C97.6611 71.292 97.3798 71.6528 97.0276 71.9653C96.6753 72.2721 96.252 72.5136 95.7577 72.6897C95.2634 72.8602 94.6923 72.9454 94.0446 72.9454ZM95.0844 70.4397C95.6185 70.4397 96.0901 70.3346 96.4992 70.1244C96.9082 69.9085 97.2293 69.6187 97.4622 69.2551C97.6952 68.8914 97.8117 68.4795 97.8117 68.0193V66.6301C97.698 66.7039 97.5418 66.7721 97.3429 66.8346C97.1497 66.8914 96.931 66.9454 96.6867 66.9965C96.4423 67.042 96.198 67.0846 95.9537 67.1244C95.7094 67.1585 95.4878 67.1897 95.2889 67.2181C94.8628 67.2806 94.4906 67.3801 94.1725 67.5164C93.8543 67.6528 93.6071 67.8374 93.431 68.0704C93.2548 68.2977 93.1668 68.5818 93.1668 68.9227C93.1668 69.417 93.3457 69.7948 93.7037 70.0562C94.0673 70.3119 94.5276 70.4397 95.0844 70.4397ZM109.106 62.4624V59.6073H120.97V62.4624H116.751V72.6982H113.291V62.4624H109.106ZM123.171 72.6982V59.6073H128.753C130.367 59.6073 131.643 59.9142 132.58 60.5278C133.518 61.1414 133.986 62.0136 133.986 63.1443C133.986 63.8545 133.722 64.4454 133.194 64.917C132.665 65.3886 131.932 65.7068 130.995 65.8715C131.779 65.9284 132.447 66.1073 132.998 66.4085C133.555 66.7039 133.978 67.0874 134.268 67.559C134.563 68.0306 134.711 68.5534 134.711 69.1272C134.711 69.8715 134.512 70.5107 134.114 71.0448C133.722 71.5789 133.145 71.988 132.384 72.2721C131.628 72.5562 130.705 72.6982 129.614 72.6982H123.171ZM126.555 69.9795H129.614C130.12 69.9795 130.515 69.8602 130.799 69.6215C131.089 69.3772 131.234 69.0448 131.234 68.6244C131.234 68.1585 131.089 67.792 130.799 67.5249C130.515 67.2579 130.12 67.1244 129.614 67.1244H126.555V69.9795ZM126.555 64.9937H128.83C129.194 64.9937 129.503 64.9426 129.759 64.8403C130.02 64.7323 130.219 64.5789 130.356 64.3801C130.498 64.1812 130.569 63.9454 130.569 63.6727C130.569 63.2693 130.407 62.9539 130.083 62.7267C129.759 62.4994 129.316 62.3857 128.753 62.3857H126.555V64.9937ZM140.732 72.9454C139.897 72.9454 139.153 72.8005 138.499 72.5107C137.846 72.2153 137.329 71.7806 136.948 71.2068C136.573 70.6272 136.386 69.9056 136.386 69.042C136.386 68.3147 136.519 67.7039 136.786 67.2096C137.053 66.7153 137.417 66.3176 137.877 66.0164C138.337 65.7153 138.86 65.488 139.445 65.3346C140.036 65.1812 140.655 65.0732 141.303 65.0107C142.064 64.9312 142.678 64.8573 143.144 64.7892C143.61 64.7153 143.948 64.6073 144.158 64.4653C144.368 64.3232 144.474 64.113 144.474 63.8346V63.7835C144.474 63.2437 144.303 62.8261 143.962 62.5306C143.627 62.2352 143.15 62.0874 142.53 62.0874C141.877 62.0874 141.357 62.2323 140.971 62.5221C140.584 62.8062 140.329 63.1642 140.204 63.596L136.846 63.3232C137.016 62.5278 137.351 61.8403 137.851 61.2607C138.351 60.6755 138.996 60.2267 139.786 59.9142C140.582 59.596 141.502 59.4369 142.547 59.4369C143.275 59.4369 143.971 59.5221 144.636 59.6926C145.306 59.863 145.9 60.1272 146.417 60.4852C146.939 60.8431 147.351 61.3034 147.653 61.8659C147.954 62.4227 148.104 63.0903 148.104 63.8687V72.6982H144.661V70.8829H144.559C144.349 71.292 144.067 71.6528 143.715 71.9653C143.363 72.2721 142.939 72.5136 142.445 72.6897C141.951 72.8602 141.38 72.9454 140.732 72.9454ZM141.772 70.4397C142.306 70.4397 142.778 70.3346 143.187 70.1244C143.596 69.9085 143.917 69.6187 144.15 69.2551C144.383 68.8914 144.499 68.4795 144.499 68.0193V66.6301C144.386 66.7039 144.229 66.7721 144.03 66.8346C143.837 66.8914 143.618 66.9454 143.374 66.9965C143.13 67.042 142.886 67.0846 142.641 67.1244C142.397 67.1585 142.175 67.1897 141.976 67.2181C141.55 67.2806 141.178 67.3801 140.86 67.5164C140.542 67.6528 140.295 67.8374 140.118 68.0704C139.942 68.2977 139.854 68.5818 139.854 68.9227C139.854 69.417 140.033 69.7948 140.391 70.0562C140.755 70.3119 141.215 70.4397 141.772 70.4397ZM150.921 77.6073V59.6073H154.501V61.8062H154.663C154.822 61.4539 155.052 61.096 155.353 60.7323C155.66 60.363 156.057 60.0562 156.546 59.8119C157.04 59.5619 157.654 59.4369 158.387 59.4369C159.341 59.4369 160.222 59.6869 161.029 60.1869C161.836 60.6812 162.481 61.4284 162.964 62.4284C163.447 63.4227 163.688 64.6698 163.688 66.1698C163.688 67.6301 163.452 68.863 162.981 69.8687C162.515 70.8687 161.878 71.6272 161.072 72.1443C160.27 72.6556 159.373 72.9113 158.378 72.9113C157.674 72.9113 157.074 72.7948 156.58 72.5619C156.091 72.3289 155.691 72.0363 155.378 71.684C155.066 71.3261 154.827 70.9653 154.663 70.6017H154.552V77.6073H150.921ZM154.475 66.1528C154.475 66.9312 154.583 67.6102 154.799 68.1897C155.015 68.7693 155.327 69.221 155.736 69.5448C156.145 69.863 156.643 70.0221 157.228 70.0221C157.819 70.0221 158.319 69.8602 158.728 69.5363C159.137 69.2068 159.447 68.7522 159.657 68.1727C159.873 67.5874 159.981 66.9142 159.981 66.1528C159.981 65.3971 159.876 64.7323 159.665 64.1585C159.455 63.5846 159.145 63.1357 158.736 62.8119C158.327 62.488 157.824 62.3261 157.228 62.3261C156.637 62.3261 156.137 62.4823 155.728 62.7948C155.324 63.1073 155.015 63.5505 154.799 64.1244C154.583 64.6982 154.475 65.3744 154.475 66.1528ZM169.577 67.9085L174.29 59.6073H177.87V72.6982H174.41V64.3715L169.714 72.6982H166.109V59.6073H169.577V67.9085ZM189.891 64.7039V67.559H183.056V64.7039H189.891ZM184.249 59.6073V72.6982H180.78V59.6073H184.249ZM192.167 59.6073V72.6982H188.724V59.6073H192.167ZM211.899 59.6073V72.6982H208.456V59.6073H211.899ZM210.22 65.3517V68.2153C209.942 68.3403 209.595 68.4596 209.18 68.5732C208.765 68.6812 208.331 68.7693 207.876 68.8374C207.422 68.9056 206.996 68.9397 206.598 68.9397C204.717 68.9397 203.237 68.5534 202.158 67.7806C201.078 67.0022 200.538 65.7607 200.538 64.0562V59.5903H203.964V64.0562C203.964 64.5619 204.05 64.9624 204.22 65.2579C204.396 65.5534 204.675 65.7664 205.055 65.8971C205.442 66.0221 205.956 66.0846 206.598 66.0846C207.194 66.0846 207.78 66.0221 208.354 65.8971C208.927 65.7721 209.55 65.5903 210.22 65.3517ZM218.451 72.9454C217.616 72.9454 216.871 72.8005 216.218 72.5107C215.564 72.2153 215.047 71.7806 214.667 71.2068C214.292 70.6272 214.104 69.9056 214.104 69.042C214.104 68.3147 214.238 67.7039 214.505 67.2096C214.772 66.7153 215.136 66.3176 215.596 66.0164C216.056 65.7153 216.579 65.488 217.164 65.3346C217.755 65.1812 218.374 65.0732 219.022 65.0107C219.783 64.9312 220.397 64.8573 220.863 64.7892C221.329 64.7153 221.667 64.6073 221.877 64.4653C222.087 64.3232 222.192 64.113 222.192 63.8346V63.7835C222.192 63.2437 222.022 62.8261 221.681 62.5306C221.346 62.2352 220.868 62.0874 220.249 62.0874C219.596 62.0874 219.076 62.2323 218.689 62.5221C218.303 62.8062 218.047 63.1642 217.922 63.596L214.564 63.3232C214.735 62.5278 215.07 61.8403 215.57 61.2607C216.07 60.6755 216.715 60.2267 217.505 59.9142C218.3 59.596 219.221 59.4369 220.266 59.4369C220.993 59.4369 221.689 59.5221 222.354 59.6926C223.025 59.863 223.618 60.1272 224.136 60.4852C224.658 60.8431 225.07 61.3034 225.371 61.8659C225.672 62.4227 225.823 63.0903 225.823 63.8687V72.6982H222.38V70.8829H222.278C222.067 71.292 221.786 71.6528 221.434 71.9653C221.082 72.2721 220.658 72.5136 220.164 72.6897C219.67 72.8602 219.099 72.9454 218.451 72.9454ZM219.491 70.4397C220.025 70.4397 220.496 70.3346 220.905 70.1244C221.314 69.9085 221.636 69.6187 221.868 69.2551C222.101 68.8914 222.218 68.4795 222.218 68.0193V66.6301C222.104 66.7039 221.948 66.7721 221.749 66.8346C221.556 66.8914 221.337 66.9454 221.093 66.9965C220.849 67.042 220.604 67.0846 220.36 67.1244C220.116 67.1585 219.894 67.1897 219.695 67.2181C219.269 67.2806 218.897 67.3801 218.579 67.5164C218.261 67.6528 218.013 67.8374 217.837 68.0704C217.661 68.2977 217.573 68.5818 217.573 68.9227C217.573 69.417 217.752 69.7948 218.11 70.0562C218.474 70.3119 218.934 70.4397 219.491 70.4397ZM234.555 72.9539C233.214 72.9539 232.06 72.6698 231.094 72.1017C230.134 71.5278 229.395 70.7323 228.878 69.7153C228.367 68.6982 228.111 67.5278 228.111 66.2039C228.111 64.863 228.37 63.6869 228.887 62.6755C229.41 61.6585 230.151 60.8659 231.111 60.2977C232.072 59.7238 233.214 59.4369 234.538 59.4369C235.68 59.4369 236.68 59.6443 237.538 60.059C238.395 60.4738 239.074 61.0562 239.574 61.8062C240.074 62.5562 240.35 63.4369 240.401 64.4482H236.975C236.878 63.7948 236.623 63.2693 236.208 62.8715C235.799 62.4681 235.262 62.2664 234.597 62.2664C234.035 62.2664 233.543 62.4198 233.123 62.7267C232.708 63.0278 232.384 63.4681 232.151 64.0477C231.918 64.6272 231.802 65.3289 231.802 66.1528C231.802 66.988 231.915 67.6982 232.143 68.2835C232.376 68.8687 232.702 69.3147 233.123 69.6215C233.543 69.9284 234.035 70.0818 234.597 70.0818C235.012 70.0818 235.384 69.9965 235.714 69.8261C236.049 69.6556 236.324 69.4085 236.54 69.0846C236.762 68.7551 236.907 68.3602 236.975 67.8999H240.401C240.344 68.8999 240.072 69.7806 239.583 70.542C239.1 71.2977 238.432 71.8886 237.58 72.3147C236.728 72.7409 235.719 72.9539 234.555 72.9539ZM241.833 62.4624V59.6073H253.697V62.4624H249.478V72.6982H246.018V62.4624H241.833ZM259.366 67.9085L264.079 59.6073H267.659V72.6982H264.199V64.3715L259.503 72.6982H255.898V59.6073H259.366V67.9085ZM279.68 64.7039V67.559H272.845V64.7039H279.68ZM274.038 59.6073V72.6982H270.569V59.6073H274.038ZM281.956 59.6073V72.6982H278.513V59.6073H281.956ZM288.506 72.9454C287.67 72.9454 286.926 72.8005 286.273 72.5107C285.619 72.2153 285.102 71.7806 284.721 71.2068C284.346 70.6272 284.159 69.9056 284.159 69.042C284.159 68.3147 284.292 67.7039 284.56 67.2096C284.827 66.7153 285.19 66.3176 285.65 66.0164C286.111 65.7153 286.633 65.488 287.219 65.3346C287.81 65.1812 288.429 65.0732 289.077 65.0107C289.838 64.9312 290.452 64.8573 290.917 64.7892C291.383 64.7153 291.721 64.6073 291.932 64.4653C292.142 64.3232 292.247 64.113 292.247 63.8346V63.7835C292.247 63.2437 292.077 62.8261 291.736 62.5306C291.4 62.2352 290.923 62.0874 290.304 62.0874C289.65 62.0874 289.131 62.2323 288.744 62.5221C288.358 62.8062 288.102 63.1642 287.977 63.596L284.619 63.3232C284.79 62.5278 285.125 61.8403 285.625 61.2607C286.125 60.6755 286.77 60.2267 287.56 59.9142C288.355 59.596 289.275 59.4369 290.321 59.4369C291.048 59.4369 291.744 59.5221 292.409 59.6926C293.079 59.863 293.673 60.1272 294.19 60.4852C294.713 60.8431 295.125 61.3034 295.426 61.8659C295.727 62.4227 295.878 63.0903 295.878 63.8687V72.6982H292.435V70.8829H292.332C292.122 71.292 291.841 71.6528 291.489 71.9653C291.136 72.2721 290.713 72.5136 290.219 72.6897C289.724 72.8602 289.153 72.9454 288.506 72.9454ZM289.545 70.4397C290.079 70.4397 290.551 70.3346 290.96 70.1244C291.369 69.9085 291.69 69.6187 291.923 69.2551C292.156 68.8914 292.273 68.4795 292.273 68.0193V66.6301C292.159 66.7039 292.003 66.7721 291.804 66.8346C291.611 66.8914 291.392 66.9454 291.148 66.9965C290.903 67.042 290.659 67.0846 290.415 67.1244C290.17 67.1585 289.949 67.1897 289.75 67.2181C289.324 67.2806 288.952 67.3801 288.633 67.5164C288.315 67.6528 288.068 67.8374 287.892 68.0704C287.716 68.2977 287.628 68.5818 287.628 68.9227C287.628 69.417 287.807 69.7948 288.165 70.0562C288.528 70.3119 288.989 70.4397 289.545 70.4397ZM304.215 72.6982V70.0392L310.428 64.2863C310.957 63.7749 311.4 63.3147 311.758 62.9056C312.121 62.4965 312.397 62.096 312.584 61.7039C312.772 61.3062 312.866 60.8772 312.866 60.417C312.866 59.9056 312.749 59.4653 312.516 59.096C312.283 58.721 311.965 58.434 311.562 58.2352C311.158 58.0306 310.701 57.9284 310.189 57.9284C309.655 57.9284 309.189 58.0363 308.792 58.2522C308.394 58.4681 308.087 58.7778 307.871 59.1812C307.655 59.5846 307.547 60.0647 307.547 60.6215H304.045C304.045 59.4795 304.303 58.488 304.82 57.6471C305.337 56.8062 306.062 56.1556 306.993 55.6954C307.925 55.2352 308.999 55.0051 310.215 55.0051C311.465 55.0051 312.553 55.2267 313.479 55.6698C314.411 56.1073 315.136 56.7153 315.653 57.4937C316.17 58.2721 316.428 59.1642 316.428 60.1698C316.428 60.8289 316.297 61.4795 316.036 62.1215C315.78 62.7636 315.323 63.4767 314.664 64.2607C314.005 65.0392 313.076 65.9738 311.877 67.0647L309.329 69.5619V69.6812H316.658V72.6982H304.215Z" fill="#181717"/>
</svg>
