<svg width="346" height="108" viewBox="0 0 346 108" fill="none" xmlns="http://www.w3.org/2000/svg">
<path d="M340.168 73.4337C343.01 85.81 333.851 97.375 321.207 97.375L273.741 97.375C250.052 97.375 245.09 63.5283 267.964 57.9693L309.745 47.8155C314.464 46.6688 319.487 47.2975 323.867 49.5832L327.677 51.5714C333.049 54.3748 336.945 59.4013 338.292 65.2683L340.168 73.4337Z" fill="#527758"/>
<path d="M191.057 21.188C191.057 10.1461 182.109 1.19768 171.067 1.19758L71.5287 1.19662C52.4229 1.19644 44.1831 25.4236 59.3316 37.0595L82.7893 55.0778C84.5721 56.4473 86.5733 57.5061 88.7086 58.2099L164.79 83.2861C177.73 87.5511 191.059 77.908 191.058 64.2815L191.057 21.188Z" fill="#8281CE"/>
<path d="M0 44.698C0 33.6523 8.95431 24.698 20 24.698H79.8487C99.9085 24.698 107.48 50.9364 90.5039 61.6234L48.255 88.2206C47.2446 88.8567 46.1792 89.4011 45.0717 89.8471L27.4718 96.9355C14.3282 102.229 0 92.5532 0 78.3837V44.698Z" fill="#C688D0"/>
<rect x="12.3994" y="39.6982" width="321.348" height="49" rx="10" fill="#E8E371"/>
<path d="M43.4288 55.2437V72.6982H39.7811V58.2437H32.7243V72.6982H29.0766V55.2437H43.4288ZM46.8742 77.6073V59.6073H50.4537V61.8062H50.6156C50.7747 61.4539 51.0048 61.096 51.306 60.7323C51.6128 60.363 52.0105 60.0562 52.4992 59.8119C52.9935 59.5619 53.6071 59.4369 54.3401 59.4369C55.2946 59.4369 56.1753 59.6869 56.9821 60.1869C57.7889 60.6812 58.4338 61.4284 58.9168 62.4284C59.3997 63.4227 59.6412 64.6698 59.6412 66.1698C59.6412 67.6301 59.4054 68.863 58.9338 69.8687C58.4679 70.8687 57.8315 71.6272 57.0247 72.1443C56.2236 72.6556 55.3259 72.9113 54.3315 72.9113C53.627 72.9113 53.0276 72.7948 52.5332 72.5619C52.0446 72.3289 51.644 72.0363 51.3315 71.684C51.019 71.3261 50.7804 70.9653 50.6156 70.6017H50.5048V77.6073H46.8742ZM50.4281 66.1528C50.4281 66.9312 50.5361 67.6102 50.752 68.1897C50.9679 68.7693 51.2804 69.221 51.6895 69.5448C52.0986 69.863 52.5957 70.0221 53.181 70.0221C53.7719 70.0221 54.2719 69.8602 54.681 69.5363C55.0901 69.2068 55.3997 68.7522 55.61 68.1727C55.8259 67.5874 55.9338 66.9142 55.9338 66.1528C55.9338 65.3971 55.8287 64.7323 55.6185 64.1585C55.4082 63.5846 55.0986 63.1357 54.6895 62.8119C54.2804 62.488 53.7776 62.3261 53.181 62.3261C52.5901 62.3261 52.0901 62.4823 51.681 62.7948C51.2776 63.1073 50.9679 63.5505 50.752 64.1244C50.5361 64.6982 50.4281 65.3744 50.4281 66.1528ZM65.7946 72.9454C64.9594 72.9454 64.2151 72.8005 63.5617 72.5107C62.9082 72.2153 62.3912 71.7806 62.0105 71.2068C61.6355 70.6272 61.448 69.9056 61.448 69.042C61.448 68.3147 61.5815 67.7039 61.8486 67.2096C62.1156 66.7153 62.4793 66.3176 62.9395 66.0164C63.3997 65.7153 63.9225 65.488 64.5077 65.3346C65.0986 65.1812 65.7179 65.0732 66.3656 65.0107C67.127 64.9312 67.7406 64.8573 68.2065 64.7892C68.6725 64.7153 69.0105 64.6073 69.2207 64.4653C69.431 64.3232 69.5361 64.113 69.5361 63.8346V63.7835C69.5361 63.2437 69.3656 62.8261 69.0247 62.5306C68.6895 62.2352 68.2122 62.0874 67.5929 62.0874C66.9395 62.0874 66.4196 62.2323 66.0332 62.5221C65.6469 62.8062 65.3912 63.1642 65.2662 63.596L61.9082 63.3232C62.0787 62.5278 62.4139 61.8403 62.9139 61.2607C63.4139 60.6755 64.0588 60.2267 64.8486 59.9142C65.644 59.596 66.5645 59.4369 67.61 59.4369C68.3372 59.4369 69.0332 59.5221 69.698 59.6926C70.3685 59.863 70.9622 60.1272 71.4793 60.4852C72.002 60.8431 72.4139 61.3034 72.7151 61.8659C73.0162 62.4227 73.1668 63.0903 73.1668 63.8687V72.6982H69.7236V70.8829H69.6213C69.4111 71.292 69.1298 71.6528 68.7776 71.9653C68.4253 72.2721 68.002 72.5136 67.5077 72.6897C67.0134 72.8602 66.4423 72.9454 65.7946 72.9454ZM66.8344 70.4397C67.3685 70.4397 67.8401 70.3346 68.2492 70.1244C68.6582 69.9085 68.9793 69.6187 69.2122 69.2551C69.4452 68.8914 69.5617 68.4795 69.5617 68.0193V66.6301C69.448 66.7039 69.2918 66.7721 69.0929 66.8346C68.8997 66.8914 68.681 66.9454 68.4367 66.9965C68.1923 67.042 67.948 67.0846 67.7037 67.1244C67.4594 67.1585 67.2378 67.1897 67.0389 67.2181C66.6128 67.2806 66.2406 67.3801 65.9225 67.5164C65.6043 67.6528 65.3571 67.8374 65.181 68.0704C65.0048 68.2977 64.9168 68.5818 64.9168 68.9227C64.9168 69.417 65.0957 69.7948 65.4537 70.0562C65.8173 70.3119 66.2776 70.4397 66.8344 70.4397ZM75.9835 72.6982V59.6073H81.5659C83.1796 59.6073 84.4551 59.9142 85.3926 60.5278C86.3301 61.1414 86.7989 62.0136 86.7989 63.1443C86.7989 63.8545 86.5347 64.4454 86.0063 64.917C85.4779 65.3886 84.7449 65.7068 83.8074 65.8715C84.5915 65.9284 85.2591 66.1073 85.8102 66.4085C86.3671 66.7039 86.7904 67.0874 87.0801 67.559C87.3756 68.0306 87.5233 68.5534 87.5233 69.1272C87.5233 69.8715 87.3244 70.5107 86.9267 71.0448C86.5347 71.5789 85.958 71.988 85.1966 72.2721C84.4409 72.5562 83.5176 72.6982 82.4267 72.6982H75.9835ZM79.3671 69.9795H82.4267C82.9324 69.9795 83.3273 69.8602 83.6114 69.6215C83.9011 69.3772 84.046 69.0448 84.046 68.6244C84.046 68.1585 83.9011 67.792 83.6114 67.5249C83.3273 67.2579 82.9324 67.1244 82.4267 67.1244H79.3671V69.9795ZM79.3671 64.9937H81.6426C82.0063 64.9937 82.3159 64.9426 82.5716 64.8403C82.833 64.7323 83.0318 64.5789 83.1682 64.3801C83.3102 64.1812 83.3813 63.9454 83.3813 63.6727C83.3813 63.2693 83.2193 62.9539 82.8955 62.7267C82.5716 62.4994 82.1284 62.3857 81.5659 62.3857H79.3671V64.9937ZM93.5446 72.9454C92.7094 72.9454 91.9651 72.8005 91.3117 72.5107C90.6582 72.2153 90.1412 71.7806 89.7605 71.2068C89.3855 70.6272 89.198 69.9056 89.198 69.042C89.198 68.3147 89.3315 67.7039 89.5986 67.2096C89.8656 66.7153 90.2293 66.3176 90.6895 66.0164C91.1497 65.7153 91.6725 65.488 92.2577 65.3346C92.8486 65.1812 93.4679 65.0732 94.1156 65.0107C94.877 64.9312 95.4906 64.8573 95.9565 64.7892C96.4225 64.7153 96.7605 64.6073 96.9707 64.4653C97.181 64.3232 97.2861 64.113 97.2861 63.8346V63.7835C97.2861 63.2437 97.1156 62.8261 96.7747 62.5306C96.4395 62.2352 95.9622 62.0874 95.3429 62.0874C94.6895 62.0874 94.1696 62.2323 93.7832 62.5221C93.3969 62.8062 93.1412 63.1642 93.0162 63.596L89.6582 63.3232C89.8287 62.5278 90.1639 61.8403 90.6639 61.2607C91.1639 60.6755 91.8088 60.2267 92.5986 59.9142C93.394 59.596 94.3145 59.4369 95.36 59.4369C96.0872 59.4369 96.7832 59.5221 97.448 59.6926C98.1185 59.863 98.7122 60.1272 99.2293 60.4852C99.752 60.8431 100.164 61.3034 100.465 61.8659C100.766 62.4227 100.917 63.0903 100.917 63.8687V72.6982H97.4736V70.8829H97.3713C97.1611 71.292 96.8798 71.6528 96.5276 71.9653C96.1753 72.2721 95.752 72.5136 95.2577 72.6897C94.7634 72.8602 94.1923 72.9454 93.5446 72.9454ZM94.5844 70.4397C95.1185 70.4397 95.5901 70.3346 95.9992 70.1244C96.4082 69.9085 96.7293 69.6187 96.9622 69.2551C97.1952 68.8914 97.3117 68.4795 97.3117 68.0193V66.6301C97.198 66.7039 97.0418 66.7721 96.8429 66.8346C96.6497 66.8914 96.431 66.9454 96.1867 66.9965C95.9423 67.042 95.698 67.0846 95.4537 67.1244C95.2094 67.1585 94.9878 67.1897 94.7889 67.2181C94.3628 67.2806 93.9906 67.3801 93.6725 67.5164C93.3543 67.6528 93.1071 67.8374 92.931 68.0704C92.7548 68.2977 92.6668 68.5818 92.6668 68.9227C92.6668 69.417 92.8457 69.7948 93.2037 70.0562C93.5673 70.3119 94.0276 70.4397 94.5844 70.4397ZM108.606 62.4624V59.6073H120.47V62.4624H116.251V72.6982H112.791V62.4624H108.606ZM122.671 72.6982V59.6073H128.253C129.867 59.6073 131.143 59.9142 132.08 60.5278C133.018 61.1414 133.486 62.0136 133.486 63.1443C133.486 63.8545 133.222 64.4454 132.694 64.917C132.165 65.3886 131.432 65.7068 130.495 65.8715C131.279 65.9284 131.947 66.1073 132.498 66.4085C133.055 66.7039 133.478 67.0874 133.768 67.559C134.063 68.0306 134.211 68.5534 134.211 69.1272C134.211 69.8715 134.012 70.5107 133.614 71.0448C133.222 71.5789 132.645 71.988 131.884 72.2721C131.128 72.5562 130.205 72.6982 129.114 72.6982H122.671ZM126.055 69.9795H129.114C129.62 69.9795 130.015 69.8602 130.299 69.6215C130.589 69.3772 130.734 69.0448 130.734 68.6244C130.734 68.1585 130.589 67.792 130.299 67.5249C130.015 67.2579 129.62 67.1244 129.114 67.1244H126.055V69.9795ZM126.055 64.9937H128.33C128.694 64.9937 129.003 64.9426 129.259 64.8403C129.52 64.7323 129.719 64.5789 129.856 64.3801C129.998 64.1812 130.069 63.9454 130.069 63.6727C130.069 63.2693 129.907 62.9539 129.583 62.7267C129.259 62.4994 128.816 62.3857 128.253 62.3857H126.055V64.9937ZM140.232 72.9454C139.397 72.9454 138.653 72.8005 137.999 72.5107C137.346 72.2153 136.829 71.7806 136.448 71.2068C136.073 70.6272 135.886 69.9056 135.886 69.042C135.886 68.3147 136.019 67.7039 136.286 67.2096C136.553 66.7153 136.917 66.3176 137.377 66.0164C137.837 65.7153 138.36 65.488 138.945 65.3346C139.536 65.1812 140.155 65.0732 140.803 65.0107C141.564 64.9312 142.178 64.8573 142.644 64.7892C143.11 64.7153 143.448 64.6073 143.658 64.4653C143.868 64.3232 143.974 64.113 143.974 63.8346V63.7835C143.974 63.2437 143.803 62.8261 143.462 62.5306C143.127 62.2352 142.65 62.0874 142.03 62.0874C141.377 62.0874 140.857 62.2323 140.471 62.5221C140.084 62.8062 139.829 63.1642 139.704 63.596L136.346 63.3232C136.516 62.5278 136.851 61.8403 137.351 61.2607C137.851 60.6755 138.496 60.2267 139.286 59.9142C140.082 59.596 141.002 59.4369 142.047 59.4369C142.775 59.4369 143.471 59.5221 144.136 59.6926C144.806 59.863 145.4 60.1272 145.917 60.4852C146.439 60.8431 146.851 61.3034 147.153 61.8659C147.454 62.4227 147.604 63.0903 147.604 63.8687V72.6982H144.161V70.8829H144.059C143.849 71.292 143.567 71.6528 143.215 71.9653C142.863 72.2721 142.439 72.5136 141.945 72.6897C141.451 72.8602 140.88 72.9454 140.232 72.9454ZM141.272 70.4397C141.806 70.4397 142.278 70.3346 142.687 70.1244C143.096 69.9085 143.417 69.6187 143.65 69.2551C143.883 68.8914 143.999 68.4795 143.999 68.0193V66.6301C143.886 66.7039 143.729 66.7721 143.53 66.8346C143.337 66.8914 143.118 66.9454 142.874 66.9965C142.63 67.042 142.386 67.0846 142.141 67.1244C141.897 67.1585 141.675 67.1897 141.476 67.2181C141.05 67.2806 140.678 67.3801 140.36 67.5164C140.042 67.6528 139.795 67.8374 139.618 68.0704C139.442 68.2977 139.354 68.5818 139.354 68.9227C139.354 69.417 139.533 69.7948 139.891 70.0562C140.255 70.3119 140.715 70.4397 141.272 70.4397ZM150.421 77.6073V59.6073H154.001V61.8062H154.163C154.322 61.4539 154.552 61.096 154.853 60.7323C155.16 60.363 155.557 60.0562 156.046 59.8119C156.54 59.5619 157.154 59.4369 157.887 59.4369C158.841 59.4369 159.722 59.6869 160.529 60.1869C161.336 60.6812 161.981 61.4284 162.464 62.4284C162.947 63.4227 163.188 64.6698 163.188 66.1698C163.188 67.6301 162.952 68.863 162.481 69.8687C162.015 70.8687 161.378 71.6272 160.572 72.1443C159.77 72.6556 158.873 72.9113 157.878 72.9113C157.174 72.9113 156.574 72.7948 156.08 72.5619C155.591 72.3289 155.191 72.0363 154.878 71.684C154.566 71.3261 154.327 70.9653 154.163 70.6017H154.052V77.6073H150.421ZM153.975 66.1528C153.975 66.9312 154.083 67.6102 154.299 68.1897C154.515 68.7693 154.827 69.221 155.236 69.5448C155.645 69.863 156.143 70.0221 156.728 70.0221C157.319 70.0221 157.819 69.8602 158.228 69.5363C158.637 69.2068 158.947 68.7522 159.157 68.1727C159.373 67.5874 159.481 66.9142 159.481 66.1528C159.481 65.3971 159.376 64.7323 159.165 64.1585C158.955 63.5846 158.645 63.1357 158.236 62.8119C157.827 62.488 157.324 62.3261 156.728 62.3261C156.137 62.3261 155.637 62.4823 155.228 62.7948C154.824 63.1073 154.515 63.5505 154.299 64.1244C154.083 64.6982 153.975 65.3744 153.975 66.1528ZM169.077 67.9085L173.79 59.6073H177.37V72.6982H173.91V64.3715L169.214 72.6982H165.609V59.6073H169.077V67.9085ZM189.391 64.7039V67.559H182.556V64.7039H189.391ZM183.749 59.6073V72.6982H180.28V59.6073H183.749ZM191.667 59.6073V72.6982H188.224V59.6073H191.667ZM211.399 59.6073V72.6982H207.956V59.6073H211.399ZM209.72 65.3517V68.2153C209.442 68.3403 209.095 68.4596 208.68 68.5732C208.265 68.6812 207.831 68.7693 207.376 68.8374C206.922 68.9056 206.496 68.9397 206.098 68.9397C204.217 68.9397 202.737 68.5534 201.658 67.7806C200.578 67.0022 200.038 65.7607 200.038 64.0562V59.5903H203.464V64.0562C203.464 64.5619 203.55 64.9624 203.72 65.2579C203.896 65.5534 204.175 65.7664 204.555 65.8971C204.942 66.0221 205.456 66.0846 206.098 66.0846C206.694 66.0846 207.28 66.0221 207.854 65.8971C208.427 65.7721 209.05 65.5903 209.72 65.3517ZM217.951 72.9454C217.116 72.9454 216.371 72.8005 215.718 72.5107C215.064 72.2153 214.547 71.7806 214.167 71.2068C213.792 70.6272 213.604 69.9056 213.604 69.042C213.604 68.3147 213.738 67.7039 214.005 67.2096C214.272 66.7153 214.636 66.3176 215.096 66.0164C215.556 65.7153 216.079 65.488 216.664 65.3346C217.255 65.1812 217.874 65.0732 218.522 65.0107C219.283 64.9312 219.897 64.8573 220.363 64.7892C220.829 64.7153 221.167 64.6073 221.377 64.4653C221.587 64.3232 221.692 64.113 221.692 63.8346V63.7835C221.692 63.2437 221.522 62.8261 221.181 62.5306C220.846 62.2352 220.368 62.0874 219.749 62.0874C219.096 62.0874 218.576 62.2323 218.189 62.5221C217.803 62.8062 217.547 63.1642 217.422 63.596L214.064 63.3232C214.235 62.5278 214.57 61.8403 215.07 61.2607C215.57 60.6755 216.215 60.2267 217.005 59.9142C217.8 59.596 218.721 59.4369 219.766 59.4369C220.493 59.4369 221.189 59.5221 221.854 59.6926C222.525 59.863 223.118 60.1272 223.636 60.4852C224.158 60.8431 224.57 61.3034 224.871 61.8659C225.172 62.4227 225.323 63.0903 225.323 63.8687V72.6982H221.88V70.8829H221.778C221.567 71.292 221.286 71.6528 220.934 71.9653C220.582 72.2721 220.158 72.5136 219.664 72.6897C219.17 72.8602 218.599 72.9454 217.951 72.9454ZM218.991 70.4397C219.525 70.4397 219.996 70.3346 220.405 70.1244C220.814 69.9085 221.136 69.6187 221.368 69.2551C221.601 68.8914 221.718 68.4795 221.718 68.0193V66.6301C221.604 66.7039 221.448 66.7721 221.249 66.8346C221.056 66.8914 220.837 66.9454 220.593 66.9965C220.349 67.042 220.104 67.0846 219.86 67.1244C219.616 67.1585 219.394 67.1897 219.195 67.2181C218.769 67.2806 218.397 67.3801 218.079 67.5164C217.761 67.6528 217.513 67.8374 217.337 68.0704C217.161 68.2977 217.073 68.5818 217.073 68.9227C217.073 69.417 217.252 69.7948 217.61 70.0562C217.974 70.3119 218.434 70.4397 218.991 70.4397ZM234.055 72.9539C232.714 72.9539 231.56 72.6698 230.594 72.1017C229.634 71.5278 228.895 70.7323 228.378 69.7153C227.867 68.6982 227.611 67.5278 227.611 66.2039C227.611 64.863 227.87 63.6869 228.387 62.6755C228.91 61.6585 229.651 60.8659 230.611 60.2977C231.572 59.7238 232.714 59.4369 234.038 59.4369C235.18 59.4369 236.18 59.6443 237.038 60.059C237.895 60.4738 238.574 61.0562 239.074 61.8062C239.574 62.5562 239.85 63.4369 239.901 64.4482H236.475C236.378 63.7948 236.123 63.2693 235.708 62.8715C235.299 62.4681 234.762 62.2664 234.097 62.2664C233.535 62.2664 233.043 62.4198 232.623 62.7267C232.208 63.0278 231.884 63.4681 231.651 64.0477C231.418 64.6272 231.302 65.3289 231.302 66.1528C231.302 66.988 231.415 67.6982 231.643 68.2835C231.876 68.8687 232.202 69.3147 232.623 69.6215C233.043 69.9284 233.535 70.0818 234.097 70.0818C234.512 70.0818 234.884 69.9965 235.214 69.8261C235.549 69.6556 235.824 69.4085 236.04 69.0846C236.262 68.7551 236.407 68.3602 236.475 67.8999H239.901C239.844 68.8999 239.572 69.7806 239.083 70.542C238.6 71.2977 237.932 71.8886 237.08 72.3147C236.228 72.7409 235.219 72.9539 234.055 72.9539ZM241.333 62.4624V59.6073H253.197V62.4624H248.978V72.6982H245.518V62.4624H241.333ZM258.866 67.9085L263.579 59.6073H267.159V72.6982H263.699V64.3715L259.003 72.6982H255.398V59.6073H258.866V67.9085ZM279.18 64.7039V67.559H272.345V64.7039H279.18ZM273.538 59.6073V72.6982H270.069V59.6073H273.538ZM281.456 59.6073V72.6982H278.013V59.6073H281.456ZM288.006 72.9454C287.17 72.9454 286.426 72.8005 285.773 72.5107C285.119 72.2153 284.602 71.7806 284.221 71.2068C283.846 70.6272 283.659 69.9056 283.659 69.042C283.659 68.3147 283.792 67.7039 284.06 67.2096C284.327 66.7153 284.69 66.3176 285.15 66.0164C285.611 65.7153 286.133 65.488 286.719 65.3346C287.31 65.1812 287.929 65.0732 288.577 65.0107C289.338 64.9312 289.952 64.8573 290.417 64.7892C290.883 64.7153 291.221 64.6073 291.432 64.4653C291.642 64.3232 291.747 64.113 291.747 63.8346V63.7835C291.747 63.2437 291.577 62.8261 291.236 62.5306C290.9 62.2352 290.423 62.0874 289.804 62.0874C289.15 62.0874 288.631 62.2323 288.244 62.5221C287.858 62.8062 287.602 63.1642 287.477 63.596L284.119 63.3232C284.29 62.5278 284.625 61.8403 285.125 61.2607C285.625 60.6755 286.27 60.2267 287.06 59.9142C287.855 59.596 288.775 59.4369 289.821 59.4369C290.548 59.4369 291.244 59.5221 291.909 59.6926C292.579 59.863 293.173 60.1272 293.69 60.4852C294.213 60.8431 294.625 61.3034 294.926 61.8659C295.227 62.4227 295.378 63.0903 295.378 63.8687V72.6982H291.935V70.8829H291.832C291.622 71.292 291.341 71.6528 290.989 71.9653C290.636 72.2721 290.213 72.5136 289.719 72.6897C289.224 72.8602 288.653 72.9454 288.006 72.9454ZM289.045 70.4397C289.579 70.4397 290.051 70.3346 290.46 70.1244C290.869 69.9085 291.19 69.6187 291.423 69.2551C291.656 68.8914 291.773 68.4795 291.773 68.0193V66.6301C291.659 66.7039 291.503 66.7721 291.304 66.8346C291.111 66.8914 290.892 66.9454 290.648 66.9965C290.403 67.042 290.159 67.0846 289.915 67.1244C289.67 67.1585 289.449 67.1897 289.25 67.2181C288.824 67.2806 288.452 67.3801 288.133 67.5164C287.815 67.6528 287.568 67.8374 287.392 68.0704C287.216 68.2977 287.128 68.5818 287.128 68.9227C287.128 69.417 287.307 69.7948 287.665 70.0562C288.028 70.3119 288.489 70.4397 289.045 70.4397ZM310.167 72.9369C308.894 72.9369 307.761 72.7181 306.766 72.2806C305.778 71.8374 304.996 71.2295 304.422 70.4568C303.854 69.6784 303.562 68.7806 303.545 67.7636H307.261C307.283 68.1897 307.422 68.5647 307.678 68.8886C307.939 69.2068 308.286 69.4539 308.718 69.6301C309.15 69.8062 309.636 69.8943 310.175 69.8943C310.738 69.8943 311.235 69.7948 311.667 69.596C312.099 69.3971 312.437 69.1215 312.681 68.7693C312.925 68.417 313.047 68.0107 313.047 67.5505C313.047 67.0846 312.917 66.6727 312.655 66.3147C312.4 65.9511 312.03 65.667 311.547 65.4624C311.07 65.2579 310.502 65.1556 309.843 65.1556H308.215V62.4454H309.843C310.4 62.4454 310.891 62.3488 311.317 62.1556C311.749 61.9624 312.084 61.6954 312.323 61.3545C312.562 61.0079 312.681 60.6045 312.681 60.1443C312.681 59.7068 312.576 59.3232 312.366 58.9937C312.161 58.6585 311.871 58.3971 311.496 58.2096C311.127 58.0221 310.695 57.9284 310.201 57.9284C309.701 57.9284 309.243 58.0193 308.829 58.2011C308.414 58.3772 308.082 58.6301 307.832 58.9596C307.582 59.2892 307.448 59.6755 307.431 60.1187H303.894C303.911 59.113 304.198 58.2267 304.755 57.4596C305.312 56.6926 306.062 56.0931 307.005 55.6613C307.954 55.2238 309.025 55.0051 310.218 55.0051C311.422 55.0051 312.476 55.2238 313.38 55.6613C314.283 56.0988 314.985 56.6897 315.485 57.434C315.991 58.1727 316.241 59.0022 316.235 59.9227C316.241 60.8999 315.937 61.7153 315.323 62.3687C314.715 63.0221 313.922 63.4369 312.945 63.613V63.7494C314.229 63.9142 315.207 64.3602 315.877 65.0874C316.553 65.809 316.888 66.7124 316.883 67.7977C316.888 68.792 316.601 69.6755 316.022 70.4482C315.448 71.221 314.655 71.8289 313.644 72.2721C312.633 72.7153 311.474 72.9369 310.167 72.9369Z" fill="#181717"/>
</svg>
