<svg width="164" height="64" viewBox="0 0 164 64" fill="none" xmlns="http://www.w3.org/2000/svg">
<path d="M162.364 13.0446C163.168 13.2455 163.656 14.0599 163.455 14.8636C163.255 15.6673 162.44 16.1559 161.636 15.955L162.364 13.0446ZM152.742 7.42465L151.718 8.52118L151.69 8.49512L151.664 8.46766L152.742 7.42465ZM134 1.99954L133.843 0.507784L134 1.99954ZM115 12.0304L114.497 10.6176L115 12.0304ZM85.5004 12.0304L85.1971 13.4995L85.5004 12.0304ZM55.4699 16.073L56.6976 16.9349L55.4699 16.073ZM45.5004 47.4995L45.7703 48.9751L45.6957 48.9887L45.6201 48.9948L45.5004 47.4995ZM12.5759 63.5452C11.9984 64.1391 11.0488 64.1525 10.4548 63.575L0.775321 54.1645C0.181334 53.5871 0.167956 52.6374 0.745431 52.0434C1.32291 51.4494 2.27256 51.4361 2.86655 52.0135L11.4705 60.3784L19.8354 51.7745C20.4129 51.1805 21.3625 51.1671 21.9565 51.7446C22.5505 52.3221 22.5639 53.2717 21.9864 53.8657L12.5759 63.5452ZM11.2668 49.6083C11.4891 48.8103 12.3162 48.3435 13.1143 48.5658C13.9123 48.7881 14.3791 49.6152 14.1568 50.4133L11.2668 49.6083ZM32.8254 46.157C32.0436 45.8829 31.632 45.027 31.906 44.2452C32.18 43.4634 33.0359 43.0518 33.8177 43.3258L32.8254 46.157ZM51.6365 42.137C52.0207 41.4031 52.9271 41.1196 53.661 41.5038C54.395 41.888 54.6785 42.7944 54.2943 43.5284L51.6365 42.137ZM54.7882 24.7699C54.7958 25.5983 54.1304 26.276 53.302 26.2836C52.4736 26.2912 51.7959 25.6258 51.7883 24.7974L54.7882 24.7699ZM60.7723 9.21577C61.5013 8.8223 62.4112 9.09431 62.8047 9.82332C63.1982 10.5523 62.9262 11.4623 62.1972 11.8558L60.7723 9.21577ZM77.1834 11.2808C76.3813 11.0737 75.8989 10.2556 76.106 9.45348C76.313 8.65136 77.1312 8.16897 77.9333 8.37606L77.1834 11.2808ZM93.0315 11.7236C93.8541 11.8219 94.4412 12.5684 94.3429 13.391C94.2446 14.2136 93.4981 14.8007 92.6755 14.7024L93.0315 11.7236ZM107.876 15.0494C107.052 15.1326 106.316 14.5319 106.233 13.7076C106.15 12.8834 106.751 12.1478 107.575 12.0645L107.876 15.0494ZM118.891 8.24908C119.548 7.74439 120.49 7.86781 120.994 8.52476C121.499 9.1817 121.376 10.1234 120.719 10.6281L118.891 8.24908ZM129.14 4.53363C128.358 4.80622 127.503 4.39301 127.23 3.61072C126.957 2.82842 127.371 1.97327 128.153 1.70069L129.14 4.53363ZM139.129 0.422959C139.955 0.484847 140.574 1.20471 140.512 2.03082C140.45 2.85693 139.731 3.47646 138.904 3.41458L139.129 0.422959ZM147.961 5.89533C147.223 5.51831 146.931 4.61467 147.308 3.87701C147.685 3.13936 148.588 2.84701 149.326 3.22404L147.961 5.89533ZM155.89 8.73405C156.403 9.38422 156.292 10.3275 155.642 10.8409C154.992 11.3543 154.049 11.2434 153.535 10.5932L155.89 8.73405ZM158.544 14.881C157.794 14.5283 157.473 13.6347 157.825 12.8851C158.178 12.1355 159.072 11.8138 159.821 12.1666L158.544 14.881ZM10.0006 62.5207C9.92367 57.0632 10.3679 52.8358 11.2668 49.6083L14.1568 50.4133C13.3632 53.2625 12.9256 57.1766 13.0003 62.4784L10.0006 62.5207ZM33.8177 43.3258C36.0013 44.0912 38.0988 44.8287 40.0868 45.3449C42.0795 45.8623 43.853 46.1266 45.3808 46.0043L45.6201 48.9948C43.6078 49.1558 41.4603 48.801 39.3328 48.2486C37.2007 47.6949 34.9787 46.9117 32.8254 46.157L33.8177 43.3258ZM45.2305 46.024C48.9524 45.3433 50.726 43.8763 51.6365 42.137L54.2943 43.5284C52.8468 46.2936 50.1419 48.1755 45.7703 48.9751L45.2305 46.024ZM51.7883 24.7974C51.758 21.4836 52.2289 18.0787 54.2423 15.211L56.6976 16.9349C55.213 19.0493 54.7602 21.7048 54.7882 24.7699L51.7883 24.7974ZM54.2423 15.211C56.1936 12.4318 58.4031 10.4945 60.7723 9.21577L62.1972 11.8558C60.2742 12.8937 58.4059 14.5018 56.6976 16.9349L54.2423 15.211ZM77.9333 8.37606C79.4996 8.78042 80.9872 9.23116 82.3132 9.62462C83.6594 10.0241 84.8181 10.3579 85.8037 10.5614L85.1971 13.4995C84.0671 13.2662 82.7887 12.895 81.4597 12.5007C80.1106 12.1003 78.6849 11.6685 77.1834 11.2808L77.9333 8.37606ZM85.8037 10.5614C87.7378 10.9607 90.2401 11.39 93.0315 11.7236L92.6755 14.7024C89.7967 14.3584 87.2107 13.9152 85.1971 13.4995L85.8037 10.5614ZM107.575 12.0645C110.095 11.8101 112.452 11.3467 114.497 10.6176L115.504 13.4433C113.166 14.2769 110.557 14.7787 107.876 15.0494L107.575 12.0645ZM114.497 10.6176C116.402 9.93809 117.759 9.11903 118.891 8.24908L120.719 10.6281C119.362 11.6703 117.732 12.6489 115.504 13.4433L114.497 10.6176ZM128.153 1.70069C129.714 1.15673 131.566 0.74756 133.843 0.507784L134.157 3.4913C132.064 3.71168 130.444 4.07919 129.14 4.53363L128.153 1.70069ZM133.843 0.507784C135.701 0.31226 137.467 0.298505 139.129 0.422959L138.904 3.41458C137.418 3.30323 135.832 3.31504 134.157 3.4913L133.843 0.507784ZM149.326 3.22404C151.317 4.24172 152.856 5.38531 153.82 6.38164L151.664 8.46766C150.977 7.75772 149.726 6.79739 147.961 5.89533L149.326 3.22404ZM153.765 6.32812C154.64 7.14413 155.305 7.99293 155.89 8.73405L153.535 10.5932C152.934 9.83166 152.402 9.15894 151.718 8.52118L153.765 6.32812ZM159.821 12.1666C160.505 12.4882 161.334 12.7869 162.364 13.0446L161.636 15.955C160.444 15.6568 159.427 15.2967 158.544 14.881L159.821 12.1666Z" fill="#F2FAFF"/>
</svg>
