<svg width="74" height="72" viewBox="0 0 74 72" fill="none" xmlns="http://www.w3.org/2000/svg">
<rect x="0.25" y="0.9375" width="73.26" height="70.125" rx="4.75" stroke="#D0A716" stroke-width="0.5"/>
<g filter="url(#filter0_i_212_633)">
<path d="M30.4633 5.6875C28.5017 5.6875 26.793 6.82049 25.7077 8.36717C24.6223 9.91384 24.0467 11.9115 24.0467 14.0731C24.0467 16.2347 24.6223 18.2342 25.7077 19.7809C26.793 21.3276 28.5017 22.4587 30.4633 22.4587C32.425 22.4587 34.1337 21.3257 35.219 19.779C36.3043 18.2324 36.88 16.2347 36.88 14.0731C36.88 11.9115 36.3043 9.91198 35.219 8.3653C34.1337 6.81862 32.425 5.6875 30.4633 5.6875ZM36.88 14.0731C36.88 16.2347 37.4557 18.2342 38.541 19.7809C39.6263 21.3276 41.3368 22.4587 43.2967 22.4587C45.2583 22.4587 46.967 21.3257 48.0523 19.779C49.1377 18.2324 49.7133 16.2347 49.7133 14.0731C49.7133 11.9115 49.1377 9.91198 48.0523 8.3653C46.967 6.81862 45.2583 5.6875 43.2967 5.6875C41.335 5.6875 39.6263 6.82049 38.541 8.36717C37.4557 9.91384 36.88 11.9115 36.88 14.0731ZM21.2967 18.7318C19.335 18.7318 17.6263 19.8648 16.541 21.4114C15.4557 22.9581 14.88 24.9557 14.88 27.1174C14.88 29.279 15.4557 31.2785 16.541 32.8252C17.6263 34.3718 19.335 35.503 21.2967 35.503C23.2583 35.503 24.967 34.37 26.0523 32.8233C27.1377 31.2766 27.7133 29.279 27.7133 27.1174C27.7133 24.9557 27.1377 22.9562 26.0523 21.4096C24.967 19.8629 23.2583 18.7318 21.2967 18.7318ZM52.4633 18.7318C50.5017 18.7318 48.793 19.8648 47.7077 21.4114C46.6223 22.9581 46.0467 24.9557 46.0467 27.1174C46.0467 29.279 46.6223 31.2785 47.7077 32.8252C48.793 34.3718 50.5017 35.503 52.4633 35.503C54.425 35.503 56.1337 34.37 57.219 32.8233C58.3043 31.2766 58.88 29.279 58.88 27.1174C58.88 24.9557 58.3043 22.9562 57.219 21.4096C56.1337 19.8629 54.425 18.7318 52.4633 18.7318ZM36.88 26.1856C34.4362 26.1856 32.7312 27.7975 31.8933 29.2138C31.061 30.63 30.5477 31.8077 30.06 32.2997C29.7795 32.5922 28.0103 33.2687 26.166 34.2246C25.2438 34.7035 24.3143 35.3427 23.5315 36.321C22.7432 37.2994 22.2115 38.6504 22.2115 40.1654C22.2115 43.7432 25.1082 46.6875 28.6282 46.6875C30.2158 46.6875 31.8732 46.1657 33.4957 45.6999C35.1255 45.2228 36.88 44.8203 36.88 44.8203C36.88 44.8203 38.6345 45.2228 40.2607 45.6961C41.885 46.162 43.5423 46.6838 45.13 46.6838C48.65 46.6838 51.5467 43.7395 51.5467 40.1616C51.5467 38.682 51.0095 37.3292 50.2267 36.3788C49.4475 35.4228 48.5088 34.8321 47.594 34.3383C45.7607 33.3507 43.9585 32.568 43.6982 32.2997C43.2582 31.858 42.7632 30.6412 41.9198 29.2175C41.0783 27.7882 39.3367 26.1856 36.88 26.1856Z" fill="#E29624"/>
</g>
<g filter="url(#filter1_i_212_633)">
<path d="M12.9688 25.6719C12.9688 23.4705 11.1857 21.6875 8.98438 21.6875C6.78301 21.6875 5 23.4705 5 25.6719V47.7354C5 50.2754 6.00605 52.7059 7.79902 54.4988L17.75 64.4498C18.9453 65.6451 20.5689 66.3125 22.2623 66.3125H28.9062C31.5459 66.3125 33.6875 64.1709 33.6875 61.5312V53.6721C33.6875 50.7137 32.5121 47.8748 30.4203 45.783L27.9002 43.2629L26.3861 41.7488L23.1986 38.5613C21.9535 37.3162 19.9314 37.3162 18.6863 38.5613C17.4412 39.8064 17.4412 41.8285 18.6863 43.0736L21.8738 46.2611L23.3879 47.7752C24.4836 48.8709 24.3043 50.6838 23.0193 51.5404C22.0531 52.1879 20.7582 52.0584 19.9314 51.2316L14.8314 46.1416C13.6361 44.9463 12.9688 43.3227 12.9688 41.6293V25.6719ZM60.7812 25.6719V41.6293C60.7812 43.3227 60.1139 44.9463 58.9186 46.1416L53.8285 51.2316C53.0018 52.0584 51.7068 52.1879 50.7406 51.5404C49.4557 50.6838 49.2764 48.8609 50.3721 47.7752L51.8861 46.2611L55.0736 43.0736C56.3188 41.8285 56.3188 39.8064 55.0736 38.5613C53.8285 37.3162 51.8064 37.3162 50.5613 38.5613L47.3738 41.7488L45.8598 43.2629L43.3396 45.783C41.2479 47.8748 40.0725 50.7137 40.0725 53.6721V61.5312C40.0725 64.1709 42.2141 66.3125 44.8537 66.3125H51.4977C53.191 66.3125 54.8146 65.6451 56.01 64.4498L65.9609 54.4988C67.7539 52.7059 68.76 50.2754 68.76 47.7354V25.6719C68.76 23.4705 66.977 21.6875 64.7756 21.6875C62.5742 21.6875 60.7912 23.4705 60.7912 25.6719H60.7812Z" fill="#D0A716"/>
</g>
<defs>
<filter id="filter0_i_212_633" x="14.88" y="5.6875" width="45" height="41" filterUnits="userSpaceOnUse" color-interpolation-filters="sRGB">
<feFlood flood-opacity="0" result="BackgroundImageFix"/>
<feBlend mode="normal" in="SourceGraphic" in2="BackgroundImageFix" result="shape"/>
<feColorMatrix in="SourceAlpha" type="matrix" values="0 0 0 0 0 0 0 0 0 0 0 0 0 0 0 0 0 0 127 0" result="hardAlpha"/>
<feOffset dx="1"/>
<feGaussianBlur stdDeviation="2"/>
<feComposite in2="hardAlpha" operator="arithmetic" k2="-1" k3="1"/>
<feColorMatrix type="matrix" values="0 0 0 0 0 0 0 0 0 0 0 0 0 0 0 0 0 0 0.25 0"/>
<feBlend mode="normal" in2="shape" result="effect1_innerShadow_212_633"/>
</filter>
<filter id="filter1_i_212_633" x="5" y="21.6875" width="63.7599" height="44.625" filterUnits="userSpaceOnUse" color-interpolation-filters="sRGB">
<feFlood flood-opacity="0" result="BackgroundImageFix"/>
<feBlend mode="normal" in="SourceGraphic" in2="BackgroundImageFix" result="shape"/>
<feColorMatrix in="SourceAlpha" type="matrix" values="0 0 0 0 0 0 0 0 0 0 0 0 0 0 0 0 0 0 127 0" result="hardAlpha"/>
<feOffset/>
<feGaussianBlur stdDeviation="1"/>
<feComposite in2="hardAlpha" operator="arithmetic" k2="-1" k3="1"/>
<feColorMatrix type="matrix" values="0 0 0 0 0 0 0 0 0 0 0 0 0 0 0 0 0 0 0.25 0"/>
<feBlend mode="normal" in2="shape" result="effect1_innerShadow_212_633"/>
</filter>
</defs>
</svg>
